<svg width="199" height="45" viewBox="0 0 199 45" fill="none" xmlns="http://www.w3.org/2000/svg">
<path d="M183.922 53.5921L188.805 41.8737H183.922H179.039L174.157 53.5921L179.039 65.3106H183.922H188.805L183.922 53.5921Z" fill="white" fill-opacity="0.06"/>
<path d="M166.149 53.5921L171.032 41.8737H166.149H161.266L156.384 53.5921L161.266 65.3106H166.149H171.032L166.149 53.5921Z" fill="white" fill-opacity="0.06"/>
<path d="M148.376 53.5921L153.259 41.8737H148.376H143.493L138.611 53.5921L143.493 65.3106H148.376H153.259L148.376 53.5921Z" fill="white" fill-opacity="0.06"/>
<path d="M130.603 53.5921L135.486 41.8737H130.603H125.72L120.838 53.5921L125.72 65.3106H130.603H135.486L130.603 53.5921Z" fill="white" fill-opacity="0.06"/>
<path d="M112.83 53.5921L117.713 41.8737H112.83H107.948L103.065 53.5921L107.948 65.3106H112.83H117.713L112.83 53.5921Z" fill="white" fill-opacity="0.06"/>
<path d="M95.0573 53.5921L99.94 41.8737H95.0573H90.1746L85.2919 53.5921L90.1746 65.3106H95.0573H99.94L95.0573 53.5921Z" fill="white" fill-opacity="0.06"/>
<path d="M77.2843 53.5921L82.167 41.8737H77.2843H72.4017L67.519 53.5921L72.4017 65.3106H77.2843H82.167L77.2843 53.5921Z" fill="white" fill-opacity="0.06"/>
<path d="M59.5114 53.5922L64.3941 41.8738H59.5114H54.6287L49.746 53.5922L54.6287 65.3106H59.5114H64.3941L59.5114 53.5922Z" fill="white" fill-opacity="0.06"/>
<path d="M41.7653 53.7184L46.648 42H41.7653H36.8827L32 53.7184L36.8827 65.4368H41.7653H46.648L41.7653 53.7184Z" fill="white" fill-opacity="0.06"/>
<path d="M22.7654 53.7184L27.648 42H22.7654H17.8827L13 53.7184L17.8827 65.4368H22.7654H27.648L22.7654 53.7184Z" fill="white" fill-opacity="0.06"/>
<path d="M175.133 30.1552L180.016 18.4368H175.133H170.25L165.368 30.1552L170.25 41.8736H175.133H180.016L175.133 30.1552Z" fill="white" fill-opacity="0.06"/>
<path d="M193.765 29.7184L198.648 18H193.765H188.883L184 29.7184L188.883 41.4368H193.765H198.648L193.765 29.7184Z" fill="white" fill-opacity="0.06"/>
<path d="M157.36 30.1553L162.243 18.4369H157.36H152.478L147.595 30.1553L152.478 41.8737H157.36H162.243L157.36 30.1553Z" fill="white" fill-opacity="0.06"/>
<path d="M139.587 30.1553L144.47 18.4369H139.587H134.705L129.822 30.1553L134.705 41.8737H139.587H144.47L139.587 30.1553Z" fill="white" fill-opacity="0.06"/>
<path d="M121.814 30.1553L126.697 18.4369H121.814H116.932L112.049 30.1553L116.932 41.8737H121.814H126.697L121.814 30.1553Z" fill="white" fill-opacity="0.06"/>
<path d="M104.041 30.1553L108.924 18.4369H104.041H99.1587L94.276 30.1553L99.1587 41.8737H104.041H108.924L104.041 30.1553Z" fill="white" fill-opacity="0.06"/>
<path d="M86.2685 30.1553L91.1511 18.4369H86.2685H81.3858L76.5031 30.1553L81.3858 41.8737H86.2685H91.1511L86.2685 30.1553Z" fill="white" fill-opacity="0.06"/>
<path d="M68.4955 30.1553L73.3782 18.4369H68.4955H63.6129L58.7302 30.1553L63.6129 41.8737H68.4955H73.3782L68.4955 30.1553Z" fill="white" fill-opacity="0.06"/>
<path d="M50.7226 30.1553L55.6052 18.4369H50.7226H45.8399L40.9572 30.1553L45.8399 41.8737H50.7226H55.6052L50.7226 30.1553Z" fill="white" fill-opacity="0.06"/>
<path d="M31.7653 30.205L36.648 18.4866H31.7653H26.8826L22 30.205L26.8826 41.9234H31.7653H36.648L31.7653 30.205Z" fill="white" fill-opacity="0.06"/>
<path d="M12.7653 29.7184L17.648 18H12.7653H7.88264L2.99996 29.7184L7.88264 41.4368H12.7653H17.648L12.7653 29.7184Z" fill="white" fill-opacity="0.06"/>
<path d="M184.117 6.71842L189 -5H184.117H179.235L174.352 6.71842L179.235 18.4368H184.117H189L184.117 6.71842Z" fill="white" fill-opacity="0.06"/>
<path d="M166.344 6.71844L171.227 -4.99999H166.344H161.462L156.579 6.71844L161.462 18.4369H166.344H171.227L166.344 6.71844Z" fill="white" fill-opacity="0.06"/>
<path d="M148.571 6.71844L153.454 -4.99999H148.571H143.689L138.806 6.71844L143.689 18.4369H148.571H153.454L148.571 6.71844Z" fill="white" fill-opacity="0.06"/>
<path d="M130.798 6.71844L135.681 -4.99999H130.798H125.916L121.033 6.71844L125.916 18.4369H130.798H135.681L130.798 6.71844Z" fill="white" fill-opacity="0.06"/>
<path d="M113.026 6.71844L117.908 -4.99999H113.026H108.143L103.26 6.71844L108.143 18.4369H113.026H117.908L113.026 6.71844Z" fill="white" fill-opacity="0.06"/>
<path d="M95.2526 6.71844L100.135 -4.99999H95.2526H90.3699L85.4872 6.71844L90.3699 18.4369H95.2526H100.135L95.2526 6.71844Z" fill="white" fill-opacity="0.06"/>
<path d="M77.4797 6.71844L82.3624 -4.99999H77.4797H72.597L67.7143 6.71844L72.597 18.4369H77.4797H82.3624L77.4797 6.71844Z" fill="white" fill-opacity="0.06"/>
<path d="M59.7067 6.71844L64.5894 -4.99999H59.7067H54.824L49.9413 6.71844L54.824 18.4369H59.7067H64.5894L59.7067 6.71844Z" fill="white" fill-opacity="0.06"/>
<path d="M41.3192 6.71842L46.2019 -5H41.3192H36.4365L31.5539 6.71842L36.4365 18.4368H41.3192H46.2019L41.3192 6.71842Z" fill="white" fill-opacity="0.06"/>
<path d="M21.7653 6.71842L26.648 -5H21.7653H16.8827L12 6.71842L16.8827 18.4368H21.7653H26.648L21.7653 6.71842Z" fill="white" fill-opacity="0.06"/>
<path d="M2.76536 6.71842L7.64804 -5H2.76536H-2.11731L-6.99999 6.71842L-2.11731 18.4368H2.76536H7.64804L2.76536 6.71842Z" fill="white" fill-opacity="0.06"/>
</svg>
