<svg width="24" height="25" viewBox="0 0 24 25" fill="none" xmlns="http://www.w3.org/2000/svg">
<path d="M23.2873 12.1039H22.0848C21.8877 12.1039 21.7126 12.2273 21.6447 12.4119L21.4438 12.9658L19.2933 8.06124C19.1068 7.63649 18.6868 7.36193 18.2228 7.36098H16.4904L15.6763 8.35014H18.2227C18.2945 8.35014 18.3595 8.39319 18.3873 8.45825L20.8774 14.1369H3.36721L5.85733 8.45825C5.88507 8.3932 5.95013 8.3511 6.02187 8.35014H8.46799L7.66443 7.45475C7.63764 7.42414 7.61373 7.39257 7.5879 7.361H6.0219C5.55794 7.36196 5.13796 7.63651 4.95143 8.06126L2.80093 12.9658L2.60003 12.4129V12.4119C2.53211 12.2273 2.35705 12.1039 2.15998 12.1039H0.957479C0.719277 12.1049 0.518377 12.2838 0.492565 12.521C0.466753 12.7582 0.622667 12.9773 0.856091 13.029L2.08154 13.3016L2.43835 13.7924L1.95429 14.8963L1.95524 14.8954C1.88828 15.0475 1.85001 15.2111 1.84236 15.3765L1.64434 19.8344L1.62329 20.2936V21.6884C1.62329 21.9266 1.718 22.1552 1.88636 22.3236C2.05472 22.492 2.28337 22.5866 2.52158 22.5866H4.15647C4.39467 22.5866 4.62329 22.4919 4.79168 22.3236C4.96008 22.1552 5.05475 21.9266 5.05475 21.6884V20.2936H19.191V21.6884C19.191 21.9266 19.2847 22.1552 19.4541 22.3236C19.6224 22.4919 19.8501 22.5866 20.0883 22.5866H21.7241C21.9624 22.5866 22.19 22.4919 22.3594 22.3236C22.5277 22.1552 22.6224 21.9266 22.6224 21.6884V20.2936L22.6023 19.8401L22.4024 15.3764C22.3948 15.2109 22.3565 15.0473 22.2895 14.8952L21.8055 13.7913L22.1623 13.3005L23.3877 13.0279L23.3887 13.0288C23.6221 12.9772 23.778 12.7581 23.7522 12.5209C23.7264 12.2836 23.5255 12.1039 23.2873 12.1039ZM6.51176 16.9081L5.33796 17.2687C5.27865 17.2859 5.21647 17.2907 5.15429 17.2812L3.2659 16.9645H3.26686C3.03918 16.9262 2.87272 16.7301 2.87272 16.4996V15.7725C2.87272 15.6252 2.94064 15.4865 3.05735 15.3975C3.17406 15.3076 3.32618 15.278 3.46775 15.3172L6.49836 16.1389C6.67056 16.1858 6.79109 16.3398 6.79395 16.5187C6.79682 16.6967 6.68203 16.8555 6.51176 16.9081ZM15.8189 18.4205H8.42588C8.048 18.4195 7.74283 18.1125 7.74283 17.7346C7.74283 17.3577 8.048 17.0506 8.42588 17.0496H9.81011C9.67236 16.8353 9.66279 16.5627 9.78524 16.3398C9.90673 16.116 10.1411 15.9763 10.3956 15.9763H13.8491C14.1036 15.9763 14.338 16.116 14.4595 16.3398C14.5819 16.5627 14.5723 16.8353 14.4346 17.0496H15.8188C16.1977 17.0496 16.5038 17.3567 16.5038 17.7346C16.5038 18.1134 16.1977 18.4205 15.8189 18.4205ZM21.3731 16.4996C21.3731 16.7301 21.2067 16.9262 20.979 16.9645L19.0906 17.2811C19.0294 17.2907 18.9672 17.2859 18.9079 17.2687L17.7341 16.908C17.5638 16.8554 17.449 16.6966 17.4519 16.5187C17.4548 16.3398 17.5753 16.1858 17.7475 16.1389L20.7781 15.3172C20.9197 15.2789 21.0708 15.3085 21.1876 15.3975C21.3043 15.4865 21.3731 15.6252 21.3731 15.7725L21.3731 16.4996Z" fill="white"/>
<path d="M12.154 10.1055C11.866 10.1055 11.5915 9.9831 11.3992 9.76881L8.58287 6.63118C8.20883 6.21409 8.24327 5.57315 8.66035 5.19909C9.07648 4.82506 9.71839 4.85949 10.0924 5.27658L12.1205 7.53615L16.1985 2.58358C16.5544 2.15119 17.1934 2.08997 17.6258 2.44583C18.0592 2.80169 18.1204 3.44073 17.7645 3.87407L12.9364 9.73644C12.7489 9.96412 12.4705 10.099 12.1749 10.1057L12.154 10.1055Z" fill="white"/>
</svg>
