<svg width="25" height="24" viewBox="0 0 25 24" fill="none" xmlns="http://www.w3.org/2000/svg">
<g clip-path="url(#clip0_258_1265)">
<path fill-rule="evenodd" clip-rule="evenodd" d="M15.2068 16.1585H17.4643C17.6967 16.1585 17.885 15.9702 17.885 15.7377C17.885 15.5052 17.6967 15.3169 17.4643 15.3169H15.2068C14.9743 15.3169 14.786 15.5052 14.786 15.7377C14.786 15.9702 14.9743 16.1585 15.2068 16.1585Z" fill="#999A9C"/>
<path fill-rule="evenodd" clip-rule="evenodd" d="M10.674 12.5908L10.4951 13.121C9.9986 13.2304 9.53891 13.4786 9.1739 13.8447C8.67107 14.3465 8.38914 15.0271 8.38914 15.7382V18.5079C8.38914 19.5452 9.11603 20.4109 10.088 20.6234V21.1862C10.088 21.9425 10.7013 22.5558 11.4587 22.5558H13.3228C14.0802 22.5558 14.6934 21.9425 14.6934 21.1862V20.6739H17.9775V21.1862C17.9775 21.9425 18.5908 22.5558 19.3482 22.5558H21.2123C21.9686 22.5558 22.5819 21.9425 22.5819 21.1862V20.6234C23.5539 20.4109 24.2818 19.5452 24.2818 18.5079V15.7382C24.2818 15.0271 23.9999 14.3465 23.4971 13.8447C23.132 13.4786 22.6723 13.2304 22.1748 13.121L20.6568 8.59246C20.4969 8.11384 20.0477 7.79192 19.5438 7.79192H15.3382C15.4708 6.8599 15.3719 5.90263 15.0416 5.01168C14.9921 4.87704 14.8764 4.7771 14.7365 4.74659C14.5976 4.71609 14.4504 4.75922 14.3494 4.8602L10.5488 8.66081L8.79519 7.90971L8.04199 6.15612L11.8437 2.35444C11.9457 2.25345 11.9888 2.10723 11.9573 1.96732C11.9268 1.82741 11.8268 1.71275 11.6932 1.66331C9.67456 0.915391 7.31607 1.35195 5.69597 2.97194C4.02339 4.64557 3.61101 7.1062 4.4631 9.1658L1.35567 12.2732C0.94752 12.6814 0.718185 13.2347 0.718185 13.8112C0.718185 14.3876 0.947509 14.9409 1.35567 15.3491C1.76277 15.7572 2.31609 15.9866 2.89255 15.9866C3.46901 15.9866 4.02339 15.7573 4.43049 15.3491L7.53899 12.2417C8.53413 12.653 9.62402 12.7685 10.674 12.5908ZM13.8519 20.674V21.1863C13.8519 21.4777 13.6142 21.7144 13.3228 21.7144H11.4588C11.1663 21.7144 10.9297 21.4777 10.9297 21.1863V20.674H13.8519ZM21.7405 20.674V21.1863C21.7405 21.4777 21.5038 21.7144 21.2124 21.7144H19.3484C19.0559 21.7144 18.8193 21.4777 18.8193 21.1863V20.674H21.7405ZM23.392 15.3174C23.3142 14.9871 23.1459 14.682 22.9029 14.4391C22.5579 14.0951 22.0908 13.9015 21.6037 13.9015H11.0675C10.5794 13.9015 10.1123 14.0951 9.76831 14.4391C9.52531 14.6821 9.35701 14.9871 9.27916 15.3174H11.5935C11.7744 15.3174 11.9343 15.4331 11.9921 15.6046L12.7443 17.8631C12.7874 17.9915 12.7664 18.1324 12.6875 18.2418C12.6075 18.3512 12.4813 18.4164 12.3456 18.4164H9.23092V18.508C9.23092 19.2401 9.82316 19.8324 10.5543 19.8324H22.1163C22.8474 19.8324 23.4407 19.2401 23.4407 18.508V18.4164H20.2808C20.1451 18.4164 20.0178 18.3512 19.9389 18.2418C19.86 18.1324 19.8379 17.9915 19.8811 17.8631L20.6343 15.6046C20.6911 15.4331 20.852 15.3174 21.033 15.3174H23.392ZM23.4404 16.159H21.3355L20.8632 17.5749H23.4404V16.159ZM9.23066 16.159V17.5749H11.7616L11.2893 16.159H9.23066ZM14.4429 5.95609C14.7816 7.51295 14.3451 9.20355 13.1374 10.4132C11.6479 11.9028 9.42625 12.2173 7.62626 11.3589C7.46531 11.2821 7.27385 11.3158 7.14763 11.442C7.14763 11.442 5.18364 13.406 3.835 14.7536C3.58569 15.004 3.24591 15.1449 2.89246 15.1449C2.539 15.1449 2.20028 15.004 1.94991 14.7536C1.7006 14.5043 1.55965 14.1645 1.55965 13.8111C1.55965 13.4576 1.70061 13.1189 1.94991 12.8685C3.2985 11.521 5.26255 9.55587 5.26255 9.55587C5.38878 9.43069 5.42139 9.23818 5.3446 9.07725C4.48621 7.27737 4.8018 5.05663 6.29134 3.56714C7.49898 2.3574 9.19061 1.92294 10.7474 2.26061L7.24655 5.76257C7.12452 5.88354 7.08875 6.06763 7.15713 6.22544L8.08704 8.3956C8.13017 8.49554 8.20907 8.57443 8.30795 8.61756L10.4781 9.54748C10.637 9.6148 10.82 9.57903 10.941 9.45806L14.4429 5.95609ZM15.154 8.63329C14.8921 9.5022 14.4187 10.3217 13.7318 11.0086C13.1227 11.6176 12.4085 12.0605 11.6469 12.334L11.4039 13.0599H13.1143L15.2456 10.2174C15.3855 10.0323 15.6495 9.99442 15.8347 10.1333C16.0209 10.2721 16.0587 10.5372 15.9188 10.7224L14.1663 13.0598H16.8781L19.0083 10.2174C19.1482 10.0322 19.4123 9.99434 19.5974 10.1332C19.7836 10.2721 19.8215 10.5371 19.6816 10.7223L17.9301 13.0597H21.267L19.8584 8.8592C19.8132 8.7235 19.6859 8.63303 19.5438 8.63303L15.154 8.63329Z" fill="#999A9C" stroke="#999A9C" stroke-width="0.25"/>
</g>
<defs>
<clipPath id="clip0_258_1265">
<rect width="24" height="24" fill="white" transform="translate(0.5)"/>
</clipPath>
</defs>
</svg>
