<svg width="24" height="22" viewBox="0 0 24 22" fill="none" xmlns="http://www.w3.org/2000/svg">
<path fill-rule="evenodd" clip-rule="evenodd" d="M13.9792 15.0076H16.4019C16.6344 15.0076 16.8227 14.8193 16.8227 14.5868C16.8227 14.3543 16.6344 14.166 16.4019 14.166H13.9792C13.7457 14.166 13.5585 14.3543 13.5585 14.5868C13.5585 14.8193 13.7457 15.0076 13.9792 15.0076Z" fill="#101117"/>
<path fill-rule="evenodd" clip-rule="evenodd" d="M13.5206 3.22763C11.4578 1.16371 8.1064 1.16371 6.04224 3.22763C3.97831 5.29156 3.97831 8.64294 6.04224 10.706C8.10616 12.77 11.4575 12.77 13.5206 10.706C15.5846 8.64315 15.5846 5.2918 13.5206 3.22763ZM12.9252 3.82302C14.6609 5.55873 14.6609 8.37577 12.9252 10.1106C11.1895 11.8463 8.37357 11.8463 6.63768 10.1106C4.90303 8.37593 4.90303 5.55891 6.63768 3.82302C8.37338 2.08837 11.1894 2.08837 12.9252 3.82302Z" fill="#101117"/>
<path fill-rule="evenodd" clip-rule="evenodd" d="M3.83534 10.3567L0.654392 13.5376C-0.051464 14.2424 -0.051464 15.387 0.654392 16.0928H0.655444C1.3613 16.7997 2.50582 16.7997 3.21167 16.0928L6.39262 12.9127C6.60195 13.0326 6.81549 13.1399 7.03325 13.2356C6.81129 13.6469 6.69137 14.1108 6.69137 14.5863V17.5602C6.69137 18.6658 7.47401 19.5894 8.51649 19.8061V20.4341C8.51649 21.2293 9.16132 21.8731 9.95661 21.8731H11.9574C12.7516 21.8731 13.3965 21.2293 13.3965 20.4341V19.8544H16.9835V20.4341C16.9835 21.2293 17.6284 21.8731 18.4237 21.8731H20.4245C21.2197 21.8731 21.8646 21.2293 21.8646 20.4341V19.8061C22.906 19.5894 23.6886 18.6657 23.6886 17.5602V14.5863C23.6886 13.8331 23.3888 13.1094 22.8555 12.575C22.4631 12.1837 21.9687 11.9175 21.4343 11.805L19.7986 6.92609C19.6313 6.4264 19.1621 6.08873 18.6341 6.08873H16.567C16.3808 4.63916 15.7317 3.2401 14.6209 2.12817C11.95 -0.542724 7.61294 -0.542724 4.94285 2.12817C2.71484 4.35618 2.3458 7.74451 3.83534 10.3567ZM21.023 19.8548V20.4344C21.023 20.7637 20.7547 21.032 20.4244 21.032H18.4236C18.0933 21.032 17.8251 20.7637 17.8251 20.4344V19.8548H21.023ZM12.5549 19.8548V20.4344C12.5549 20.7637 12.2877 21.032 11.9574 21.032H9.95661C9.62524 21.032 9.35804 20.7637 9.35804 20.4344V19.8548H12.5549ZM13.6921 12.5838C11.9595 13.7914 9.79347 14.107 7.83594 13.5284C7.71392 13.7241 7.62661 13.9397 7.57927 14.1659H10.0997C10.2807 14.1659 10.4416 14.2827 10.4995 14.4541L11.3074 16.8768C11.3495 17.0062 11.3284 17.1461 11.2485 17.2565C11.1696 17.3659 11.0433 17.4312 10.9076 17.4312H7.53307V17.5605C7.53307 18.3621 8.18423 19.0133 8.9858 19.0133H21.3945C22.1971 19.0133 22.8472 18.3621 22.8472 17.5605V17.4312H19.4242C19.2895 17.4312 19.1622 17.3659 19.0834 17.2565C19.0034 17.1461 18.9824 17.0062 19.0244 16.8768L19.8323 14.4541C19.8902 14.2827 20.0511 14.1659 20.2321 14.1659H22.803C22.722 13.7914 22.5359 13.4464 22.2602 13.1708C21.8858 12.7952 21.3766 12.5838 20.8454 12.5838H13.6921ZM7.53298 15.0075V16.5896H10.3237L9.7967 15.0075H7.53298ZM22.8471 15.0075H20.535L20.008 16.5896H22.8472L22.8471 15.0075ZM4.3076 11.0744L1.24973 14.1322C0.872092 14.5099 0.872092 15.1211 1.24973 15.4977L1.25078 15.4987C1.62842 15.8764 2.23961 15.8764 2.61725 15.4987L5.67432 12.4408C5.41975 12.2504 5.17569 12.038 4.94323 11.8055C4.71075 11.574 4.49907 11.33 4.3076 11.0744ZM14.0255 2.72399C16.3682 5.06562 16.3682 8.86829 14.0255 11.2112C11.6828 13.5528 7.88011 13.5528 5.53829 11.2112C3.19562 8.8685 3.19562 5.0658 5.53829 2.72399C7.87992 0.381318 11.6826 0.381318 14.0255 2.72399ZM16.6227 6.93069C16.6332 8.6664 15.9863 10.4062 14.6829 11.7422H15.7885L18.0849 8.68005C18.2248 8.49385 18.4878 8.45704 18.674 8.59589C18.8602 8.7358 18.8981 8.99879 18.7582 9.18498L16.8405 11.7423H20.5266L19.0013 7.19355C18.9487 7.03681 18.8014 6.93057 18.6342 6.93057L16.6227 6.93069Z" fill="#101117" stroke="#101117" stroke-width="0.25"/>
</svg>
