<svg width="39" height="67" viewBox="0 0 39 67" fill="none" xmlns="http://www.w3.org/2000/svg">
<path d="M25.0409 38.2111H24.7523V32.1167C27.7642 29.7553 29.681 25.6202 29.7593 21.0263C30.6176 20.7408 31.2553 19.7671 31.2553 18.602V16.6955C31.2553 15.728 30.813 14.896 30.1731 14.4748C29.9916 8.39646 26.7703 3.26322 22.1578 1.70291C22.0856 0.749955 21.4549 0 20.6813 0H17.4918C16.7385 0 16.1202 0.711018 16.0214 1.62819C11.4039 3.20364 8.18057 8.36272 7.99992 14.4748C7.3601 14.8961 6.91782 15.728 6.91782 16.6955V18.602C6.91782 19.7665 7.55484 20.7397 8.4125 21.0258C8.49161 25.6724 10.4534 29.8469 13.5294 32.1963V38.211H13.3019C5.96735 38.211 0 46.4862 0 56.6581V65.9664C0 66.428 0.297753 66.8015 0.665712 66.8015H37.6725C38.0405 66.8015 38.3382 66.428 38.3382 65.9664V56.6524C38.3382 46.4838 32.3728 38.2111 25.0409 38.2111ZM27.083 40.1438C26.4445 47.1126 28.2771 50.2254 29.9603 52.1528C31.0525 53.4037 31.4399 55.3713 31.4399 56.6769V65.1314H19.7666V51.1269C19.7666 50.0799 20.2041 49.1356 20.8809 48.7205C23.3511 47.2077 24.8852 42.9745 24.9093 39.8811H25.0409C25.7383 39.8811 26.4179 39.9826 27.083 40.1438ZM23.5589 40.403C23.3753 43.1811 21.9566 46.2033 20.2964 47.2201C19.8138 47.516 19.4103 47.9711 19.0992 48.5193C18.786 47.9705 18.3796 47.5151 17.8936 47.2193C16.2042 46.1909 14.7633 43.1161 14.6032 40.3149C16.0166 41.3139 17.5796 41.8194 19.1438 41.8194C20.6622 41.8194 22.179 41.3434 23.5589 40.403ZM17.3124 48.7214C17.9944 49.1364 18.4352 50.0807 18.4352 51.1269V65.1314H6.50046V56.6769C6.50046 55.3713 6.88792 53.4037 7.98075 52.1528C9.65604 50.2337 11.4786 47.1379 10.8653 40.2324C11.6385 40.0074 12.4387 39.8884 13.2581 39.8842C13.2833 42.9782 14.8275 47.209 17.3124 48.7214ZM28.8319 14.1782H22.172V3.43757C25.937 4.91149 28.5673 9.14988 28.8319 14.1782ZM17.4918 1.67004H20.6813C20.7691 1.67004 20.8406 1.76463 20.8406 1.88042V14.1782H17.3326V1.88042C17.3326 1.76463 17.4041 1.67004 17.4918 1.67004ZM16.0011 3.36484V14.1782H9.34115C9.60428 9.11991 12.2333 4.85573 16.0011 3.36484ZM8.24925 16.6955C8.24925 16.2282 8.5522 15.8482 8.92471 15.8482H29.2484C29.6209 15.8482 29.9239 16.2282 29.9239 16.6955V18.602C29.9239 19.0692 29.6209 19.4492 29.2484 19.4492H8.92471C8.5522 19.4492 8.24925 19.0692 8.24925 18.602V16.6955ZM9.74689 21.1193H28.4249C28.2983 26.0454 25.7578 30.3485 22.0465 31.8848C18.8987 32.9392 16.1786 31.906 16.1617 31.8995C12.415 30.3488 9.87354 26.0454 9.74689 21.1193ZM15.7535 33.4888C15.836 33.5214 17.1557 34.0286 19.0697 34.0286C20.0591 34.0286 21.2085 33.8924 22.4268 33.4847C22.7683 33.3434 23.0975 33.1756 23.4208 32.9955V38.5764L23.2596 38.7003C20.7352 40.6215 17.5946 40.6337 15.0624 38.7256L14.8609 38.5739V33.0594C15.1517 33.2167 15.4482 33.3625 15.7535 33.4888ZM1.33144 56.6581C1.33144 49.2351 4.79197 42.9331 9.56808 40.7281C10.0349 46.6668 8.49966 49.2967 7.08295 50.9198C5.26135 53.0057 5.16903 56.0816 5.16903 56.6769V65.1314H1.33144V56.6581ZM37.0068 65.1314H32.7714V56.6769C32.7714 56.0816 32.6791 53.0057 30.8581 50.9198C29.4276 49.2815 27.877 46.6177 28.3867 40.561C33.3599 42.5962 37.0068 49.0332 37.0068 56.6524L37.0068 65.1314Z" fill="#416CEA"/>
<path d="M25.0409 38.2111H24.7523V32.1167C27.7642 29.7553 29.681 25.6202 29.7593 21.0263C30.6176 20.7408 31.2553 19.7671 31.2553 18.602V16.6955C31.2553 15.728 30.813 14.896 30.1731 14.4748C29.9916 8.39646 26.7703 3.26322 22.1578 1.70291C22.0856 0.749955 21.4549 0 20.6813 0H17.4918C16.7385 0 16.1202 0.711018 16.0214 1.62819C11.4039 3.20364 8.18057 8.36272 7.99992 14.4748C7.3601 14.8961 6.91782 15.728 6.91782 16.6955V18.602C6.91782 19.7665 7.55484 20.7397 8.4125 21.0258C8.49161 25.6724 10.4534 29.8469 13.5294 32.1963V38.211H13.3019C5.96735 38.211 0 46.4862 0 56.6581V65.9664C0 66.428 0.297753 66.8015 0.665712 66.8015H37.6725C38.0405 66.8015 38.3382 66.428 38.3382 65.9664V56.6524C38.3382 46.4838 32.3728 38.2111 25.0409 38.2111ZM27.083 40.1438C26.4445 47.1126 28.2771 50.2254 29.9603 52.1528C31.0525 53.4037 31.4399 55.3713 31.4399 56.6769V65.1314H19.7666V51.1269C19.7666 50.0799 20.2041 49.1356 20.8809 48.7205C23.3511 47.2077 24.8852 42.9745 24.9093 39.8811H25.0409C25.7383 39.8811 26.4179 39.9826 27.083 40.1438ZM23.5589 40.403C23.3753 43.1811 21.9566 46.2033 20.2964 47.2201C19.8138 47.516 19.4103 47.9711 19.0992 48.5193C18.786 47.9705 18.3796 47.5151 17.8936 47.2193C16.2042 46.1909 14.7633 43.1161 14.6032 40.3149C16.0166 41.3139 17.5796 41.8194 19.1438 41.8194C20.6622 41.8194 22.179 41.3434 23.5589 40.403ZM17.3124 48.7214C17.9944 49.1364 18.4352 50.0807 18.4352 51.1269V65.1314H6.50046V56.6769C6.50046 55.3713 6.88792 53.4037 7.98075 52.1528C9.65604 50.2337 11.4786 47.1379 10.8653 40.2324C11.6385 40.0074 12.4387 39.8884 13.2581 39.8842C13.2833 42.9782 14.8275 47.209 17.3124 48.7214ZM28.8319 14.1782H22.172V3.43757C25.937 4.91149 28.5673 9.14988 28.8319 14.1782ZM17.4918 1.67004H20.6813C20.7691 1.67004 20.8406 1.76463 20.8406 1.88042V14.1782H17.3326V1.88042C17.3326 1.76463 17.4041 1.67004 17.4918 1.67004ZM16.0011 3.36484V14.1782H9.34115C9.60428 9.11991 12.2333 4.85573 16.0011 3.36484ZM8.24925 16.6955C8.24925 16.2282 8.5522 15.8482 8.92471 15.8482H29.2484C29.6209 15.8482 29.9239 16.2282 29.9239 16.6955V18.602C29.9239 19.0692 29.6209 19.4492 29.2484 19.4492H8.92471C8.5522 19.4492 8.24925 19.0692 8.24925 18.602V16.6955ZM9.74689 21.1193H28.4249C28.2983 26.0454 25.7578 30.3485 22.0465 31.8848C18.8987 32.9392 16.1786 31.906 16.1617 31.8995C12.415 30.3488 9.87354 26.0454 9.74689 21.1193ZM15.7535 33.4888C15.836 33.5214 17.1557 34.0286 19.0697 34.0286C20.0591 34.0286 21.2085 33.8924 22.4268 33.4847C22.7683 33.3434 23.0975 33.1756 23.4208 32.9955V38.5764L23.2596 38.7003C20.7352 40.6215 17.5946 40.6337 15.0624 38.7256L14.8609 38.5739V33.0594C15.1517 33.2167 15.4482 33.3625 15.7535 33.4888ZM1.33144 56.6581C1.33144 49.2351 4.79197 42.9331 9.56808 40.7281C10.0349 46.6668 8.49966 49.2967 7.08295 50.9198C5.26135 53.0057 5.16903 56.0816 5.16903 56.6769V65.1314H1.33144V56.6581ZM37.0068 65.1314H32.7714V56.6769C32.7714 56.0816 32.6791 53.0057 30.8581 50.9198C29.4276 49.2815 27.877 46.6177 28.3867 40.561C33.3599 42.5962 37.0068 49.0332 37.0068 56.6524L37.0068 65.1314Z" fill="black" fill-opacity="0.2"/>
<path d="M22.7212 56.7777C22.7212 57.2442 23.0232 57.6218 23.3965 57.6218H27.4593C27.8326 57.6218 28.1346 57.2442 28.1346 56.7777C28.1346 56.3111 27.8326 55.9336 27.4593 55.9336H23.3965C23.0232 55.9336 22.7212 56.3111 22.7212 56.7777Z" fill="#416CEA"/>
<path d="M22.7212 56.7777C22.7212 57.2442 23.0232 57.6218 23.3965 57.6218H27.4593C27.8326 57.6218 28.1346 57.2442 28.1346 56.7777C28.1346 56.3111 27.8326 55.9336 27.4593 55.9336H23.3965C23.0232 55.9336 22.7212 56.3111 22.7212 56.7777Z" fill="black" fill-opacity="0.2"/>
</svg>
