<svg width="54" height="79" viewBox="0 0 54 79" fill="none" xmlns="http://www.w3.org/2000/svg">
<path d="M51.9695 39.3426L29.1003 22.8712V14.583H37.5851C37.9828 14.583 38.248 14.1633 38.248 13.5339V1.04914C38.248 0.419655 37.9828 0 37.5851 0C37.1874 0 36.9222 0.419655 36.9222 1.04914V12.4847H17.0359V1.04914C17.0359 0.419655 16.7708 0 16.3731 0C15.9753 0 15.7102 0.419655 15.7102 1.04914V13.5339C15.7102 14.1633 15.9753 14.583 16.3731 14.583H24.8579V22.8712L1.98863 39.3426C1.19318 39.9721 0.530302 41.0212 0.198863 42.3851C0.132575 42.595 0.132576 42.8048 0.0662879 43.0146V43.1195C0.0662879 43.3293 0 43.6441 0 43.8539C0 43.9588 0 44.1687 0 44.2736C0 44.3785 0 44.5883 0 44.6932C0 44.9031 2.5188e-07 45.2178 0.0662879 45.4276V45.5325C0.132576 45.7424 0.132575 45.9522 0.198863 46.162C0.530302 47.5259 1.12689 48.575 1.98863 49.2045L25.123 65.8858H12.3958C11.9981 65.8858 11.7329 66.3054 11.7329 66.9349V77.9509C11.7329 78.5803 11.9981 79 12.3958 79H41.5624C41.9601 79 42.2252 78.5803 42.2252 77.9509V66.9349C42.2252 66.3054 41.9601 65.8858 41.5624 65.8858H28.8351L51.9695 49.2045C54.157 47.8406 55.1513 42.1753 51.9695 39.3426ZM52.4336 45.6374C52.2347 46.4768 51.7707 47.0013 51.3067 47.3161C50.7764 47.6308 50.2461 47.6308 49.7158 47.2112L45.6059 44.2736L49.7158 41.336C49.9809 41.1262 50.3123 41.0212 50.5775 41.0212C50.8426 41.0212 51.0415 41.1262 51.3067 41.2311C51.837 41.5458 52.2347 42.1753 52.4336 42.9097C52.5661 43.3293 52.5661 43.6441 52.6324 44.0637C52.6324 44.1687 52.6324 44.1687 52.6324 44.2736C52.6324 44.3785 52.6324 44.3785 52.6324 44.4834C52.6324 44.9031 52.5661 45.2178 52.4336 45.6374ZM44.015 43.1195L28.5037 31.9987C29.8295 30.7397 30.426 28.1169 29.8957 25.8088L48.9866 39.5525L44.015 43.1195ZM27.5757 58.1222C28.106 58.4369 28.4374 59.1713 28.6363 59.9057C28.8351 60.6401 28.8351 61.5843 28.57 62.4236C28.3048 63.2629 27.9071 63.7875 27.4431 64.1023C27.3105 64.2072 27.1117 64.2072 26.9791 64.3121C26.8465 64.3121 26.6476 64.2072 26.5151 64.1023C25.9848 63.7875 25.587 63.158 25.3882 62.4236C24.9242 60.745 25.3882 58.8566 26.3825 58.1222L26.9791 57.7025L27.5757 58.1222ZM26.9791 55.3944L11.5341 44.2736L26.9791 33.1527L42.4241 44.2736L26.9791 55.3944ZM27.4431 24.34C27.9734 24.6547 28.3711 25.2842 28.57 26.0186C29.034 27.6972 28.57 29.5857 27.5757 30.3201L26.9791 30.7397L26.3825 30.3201C25.3219 29.5857 24.8579 27.5923 25.3882 26.0186C25.587 25.1793 26.0511 24.6547 26.5151 24.34C26.6476 24.2351 26.8465 24.2351 26.9791 24.1301C27.1117 24.2351 27.3105 24.2351 27.4431 24.34ZM24.0624 29.3758C24.3276 30.5299 24.7916 31.3692 25.4545 31.9987L9.94315 43.1195L4.97158 39.5525L24.0624 25.8088C23.7973 26.9628 23.7973 28.2218 24.0624 29.3758ZM1.32575 44.4834C1.32575 44.3785 1.32575 44.3785 1.32575 44.2736C1.32575 44.1687 1.32575 44.1687 1.32575 44.0637C1.32575 43.6441 1.39204 43.3293 1.52462 42.9097C1.72348 42.0704 2.18749 41.5458 2.65151 41.2311C2.91666 41.1262 3.11552 41.0212 3.38067 41.0212C3.64582 41.0212 3.97726 41.1262 4.24241 41.336L8.35225 44.2736L4.24241 47.2112C3.71211 47.5259 3.18181 47.6308 2.65151 47.3161C2.12121 47.0013 1.72348 46.3718 1.52462 45.6374C1.39204 45.2178 1.32575 44.9031 1.32575 44.4834ZM9.94315 45.4276L25.4545 56.5485C24.7916 57.178 24.3276 58.1222 24.0624 59.1713C23.7973 60.3254 23.7973 61.5843 23.9961 62.7384L4.90529 49.0996L9.94315 45.4276ZM28.5037 56.6534L44.015 45.5325L48.9866 49.0996L29.962 62.8433C30.426 60.4303 29.8295 57.9123 28.5037 56.6534ZM27.7745 14.583V22.1368C27.5094 22.0319 27.2442 22.0319 26.9791 22.0319C26.7139 22.0319 26.4488 22.0319 26.1836 22.1368V14.583H27.7745ZM40.8995 76.9017H13.0587V67.9841H40.8995V76.9017Z" fill="#416CEA"/>
<path d="M51.9695 39.3426L29.1003 22.8712V14.583H37.5851C37.9828 14.583 38.248 14.1633 38.248 13.5339V1.04914C38.248 0.419655 37.9828 0 37.5851 0C37.1874 0 36.9222 0.419655 36.9222 1.04914V12.4847H17.0359V1.04914C17.0359 0.419655 16.7708 0 16.3731 0C15.9753 0 15.7102 0.419655 15.7102 1.04914V13.5339C15.7102 14.1633 15.9753 14.583 16.3731 14.583H24.8579V22.8712L1.98863 39.3426C1.19318 39.9721 0.530302 41.0212 0.198863 42.3851C0.132575 42.595 0.132576 42.8048 0.0662879 43.0146V43.1195C0.0662879 43.3293 0 43.6441 0 43.8539C0 43.9588 0 44.1687 0 44.2736C0 44.3785 0 44.5883 0 44.6932C0 44.9031 2.5188e-07 45.2178 0.0662879 45.4276V45.5325C0.132576 45.7424 0.132575 45.9522 0.198863 46.162C0.530302 47.5259 1.12689 48.575 1.98863 49.2045L25.123 65.8858H12.3958C11.9981 65.8858 11.7329 66.3054 11.7329 66.9349V77.9509C11.7329 78.5803 11.9981 79 12.3958 79H41.5624C41.9601 79 42.2252 78.5803 42.2252 77.9509V66.9349C42.2252 66.3054 41.9601 65.8858 41.5624 65.8858H28.8351L51.9695 49.2045C54.157 47.8406 55.1513 42.1753 51.9695 39.3426ZM52.4336 45.6374C52.2347 46.4768 51.7707 47.0013 51.3067 47.3161C50.7764 47.6308 50.2461 47.6308 49.7158 47.2112L45.6059 44.2736L49.7158 41.336C49.9809 41.1262 50.3123 41.0212 50.5775 41.0212C50.8426 41.0212 51.0415 41.1262 51.3067 41.2311C51.837 41.5458 52.2347 42.1753 52.4336 42.9097C52.5661 43.3293 52.5661 43.6441 52.6324 44.0637C52.6324 44.1687 52.6324 44.1687 52.6324 44.2736C52.6324 44.3785 52.6324 44.3785 52.6324 44.4834C52.6324 44.9031 52.5661 45.2178 52.4336 45.6374ZM44.015 43.1195L28.5037 31.9987C29.8295 30.7397 30.426 28.1169 29.8957 25.8088L48.9866 39.5525L44.015 43.1195ZM27.5757 58.1222C28.106 58.4369 28.4374 59.1713 28.6363 59.9057C28.8351 60.6401 28.8351 61.5843 28.57 62.4236C28.3048 63.2629 27.9071 63.7875 27.4431 64.1023C27.3105 64.2072 27.1117 64.2072 26.9791 64.3121C26.8465 64.3121 26.6476 64.2072 26.5151 64.1023C25.9848 63.7875 25.587 63.158 25.3882 62.4236C24.9242 60.745 25.3882 58.8566 26.3825 58.1222L26.9791 57.7025L27.5757 58.1222ZM26.9791 55.3944L11.5341 44.2736L26.9791 33.1527L42.4241 44.2736L26.9791 55.3944ZM27.4431 24.34C27.9734 24.6547 28.3711 25.2842 28.57 26.0186C29.034 27.6972 28.57 29.5857 27.5757 30.3201L26.9791 30.7397L26.3825 30.3201C25.3219 29.5857 24.8579 27.5923 25.3882 26.0186C25.587 25.1793 26.0511 24.6547 26.5151 24.34C26.6476 24.2351 26.8465 24.2351 26.9791 24.1301C27.1117 24.2351 27.3105 24.2351 27.4431 24.34ZM24.0624 29.3758C24.3276 30.5299 24.7916 31.3692 25.4545 31.9987L9.94315 43.1195L4.97158 39.5525L24.0624 25.8088C23.7973 26.9628 23.7973 28.2218 24.0624 29.3758ZM1.32575 44.4834C1.32575 44.3785 1.32575 44.3785 1.32575 44.2736C1.32575 44.1687 1.32575 44.1687 1.32575 44.0637C1.32575 43.6441 1.39204 43.3293 1.52462 42.9097C1.72348 42.0704 2.18749 41.5458 2.65151 41.2311C2.91666 41.1262 3.11552 41.0212 3.38067 41.0212C3.64582 41.0212 3.97726 41.1262 4.24241 41.336L8.35225 44.2736L4.24241 47.2112C3.71211 47.5259 3.18181 47.6308 2.65151 47.3161C2.12121 47.0013 1.72348 46.3718 1.52462 45.6374C1.39204 45.2178 1.32575 44.9031 1.32575 44.4834ZM9.94315 45.4276L25.4545 56.5485C24.7916 57.178 24.3276 58.1222 24.0624 59.1713C23.7973 60.3254 23.7973 61.5843 23.9961 62.7384L4.90529 49.0996L9.94315 45.4276ZM28.5037 56.6534L44.015 45.5325L48.9866 49.0996L29.962 62.8433C30.426 60.4303 29.8295 57.9123 28.5037 56.6534ZM27.7745 14.583V22.1368C27.5094 22.0319 27.2442 22.0319 26.9791 22.0319C26.7139 22.0319 26.4488 22.0319 26.1836 22.1368V14.583H27.7745ZM40.8995 76.9017H13.0587V67.9841H40.8995V76.9017Z" fill="black" fill-opacity="0.2"/>
</svg>
