<svg width="37" height="70" viewBox="0 0 37 70" fill="none" xmlns="http://www.w3.org/2000/svg">
<path d="M17.9685 51.4043H9.87279C9.47787 51.4043 9.2146 51.7528 9.2146 52.2755C9.2146 52.7983 9.47787 53.1468 9.87279 53.1468H17.9685C18.3634 53.1468 18.6267 52.7983 18.6267 52.2755C18.6267 51.7528 18.3634 51.4043 17.9685 51.4043Z" fill="#416CEA"/>
<path d="M17.9685 51.4043H9.87279C9.47787 51.4043 9.2146 51.7528 9.2146 52.2755C9.2146 52.7983 9.47787 53.1468 9.87279 53.1468H17.9685C18.3634 53.1468 18.6267 52.7983 18.6267 52.2755C18.6267 51.7528 18.3634 51.4043 17.9685 51.4043Z" fill="black" fill-opacity="0.2"/>
<path d="M17.9685 41.2109H9.87279C9.47787 41.2109 9.2146 41.5594 9.2146 42.0822C9.2146 42.6049 9.47787 42.9534 9.87279 42.9534H17.9685C18.3634 42.9534 18.6267 42.6049 18.6267 42.0822C18.6267 41.5594 18.3634 41.2109 17.9685 41.2109Z" fill="#416CEA"/>
<path d="M17.9685 41.2109H9.87279C9.47787 41.2109 9.2146 41.5594 9.2146 42.0822C9.2146 42.6049 9.47787 42.9534 9.87279 42.9534H17.9685C18.3634 42.9534 18.6267 42.6049 18.6267 42.0822C18.6267 41.5594 18.3634 41.2109 17.9685 41.2109Z" fill="black" fill-opacity="0.2"/>
<path d="M17.9685 31.1035H9.87279C9.47787 31.1035 9.2146 31.452 9.2146 31.9748C9.2146 32.4975 9.47787 32.846 9.87279 32.846H17.9685C18.3634 32.846 18.6267 32.4975 18.6267 31.9748C18.6267 31.452 18.3634 31.1035 17.9685 31.1035Z" fill="#416CEA"/>
<path d="M17.9685 31.1035H9.87279C9.47787 31.1035 9.2146 31.452 9.2146 31.9748C9.2146 32.4975 9.47787 32.846 9.87279 32.846H17.9685C18.3634 32.846 18.6267 32.4975 18.6267 31.9748C18.6267 31.452 18.3634 31.1035 17.9685 31.1035Z" fill="black" fill-opacity="0.2"/>
<path d="M9.2146 21.7814C9.2146 22.3041 9.47787 22.6526 9.87279 22.6526H17.9685C18.3634 22.6526 18.6267 22.3041 18.6267 21.7814C18.6267 21.2587 18.3634 20.9102 17.9685 20.9102H9.87279C9.47787 20.9102 9.2146 21.2587 9.2146 21.7814Z" fill="#416CEA"/>
<path d="M9.2146 21.7814C9.2146 22.3041 9.47787 22.6526 9.87279 22.6526H17.9685C18.3634 22.6526 18.6267 22.3041 18.6267 21.7814C18.6267 21.2587 18.3634 20.9102 17.9685 20.9102H9.87279C9.47787 20.9102 9.2146 21.2587 9.2146 21.7814Z" fill="black" fill-opacity="0.2"/>
<path d="M35.8054 8.10258H26.4591V6.36009C26.4591 5.83734 26.1959 5.48885 25.801 5.48885H22.0493V5.05322C22.0493 2.26524 20.338 0 18.2318 0C16.1256 0 14.4143 2.26524 14.4143 5.05322V5.48885H10.6626C10.2677 5.48885 10.0045 5.83734 10.0045 6.36009V8.10258H0.658188C0.263275 8.10258 0 8.45108 0 8.97383V68.4799C0 69.0026 0.263275 69.3511 0.658188 69.3511H35.8712C36.2661 69.3511 36.5294 69.0026 36.5294 68.4799V8.97383C36.4636 8.45108 36.2003 8.10258 35.8054 8.10258ZM11.3208 7.23134H15.0725C15.4674 7.23134 15.7307 6.88284 15.7307 6.36009V5.05322C15.7307 3.22361 16.8496 1.74249 18.2318 1.74249C19.614 1.74249 20.7329 3.22361 20.7329 5.05322V6.36009C20.7329 6.88284 20.9962 7.23134 21.3911 7.23134H25.1428V11.5004H11.3208V7.23134ZM10.6626 13.2429H25.7351C26.13 13.2429 26.3933 12.8944 26.3933 12.3717V9.84507H30.7374V60.1159H5.66041V9.84507H10.0045V12.3717C10.0045 12.8073 10.3335 13.2429 10.6626 13.2429ZM35.1472 67.6087H1.31638V9.84507H4.40986V60.9872C4.40986 61.5099 4.67313 61.8584 5.06804 61.8584H31.4614C31.8563 61.8584 32.1196 61.5099 32.1196 60.9872V9.84507H35.213V67.6087H35.1472Z" fill="#416CEA"/>
<path d="M35.8054 8.10258H26.4591V6.36009C26.4591 5.83734 26.1959 5.48885 25.801 5.48885H22.0493V5.05322C22.0493 2.26524 20.338 0 18.2318 0C16.1256 0 14.4143 2.26524 14.4143 5.05322V5.48885H10.6626C10.2677 5.48885 10.0045 5.83734 10.0045 6.36009V8.10258H0.658188C0.263275 8.10258 0 8.45108 0 8.97383V68.4799C0 69.0026 0.263275 69.3511 0.658188 69.3511H35.8712C36.2661 69.3511 36.5294 69.0026 36.5294 68.4799V8.97383C36.4636 8.45108 36.2003 8.10258 35.8054 8.10258ZM11.3208 7.23134H15.0725C15.4674 7.23134 15.7307 6.88284 15.7307 6.36009V5.05322C15.7307 3.22361 16.8496 1.74249 18.2318 1.74249C19.614 1.74249 20.7329 3.22361 20.7329 5.05322V6.36009C20.7329 6.88284 20.9962 7.23134 21.3911 7.23134H25.1428V11.5004H11.3208V7.23134ZM10.6626 13.2429H25.7351C26.13 13.2429 26.3933 12.8944 26.3933 12.3717V9.84507H30.7374V60.1159H5.66041V9.84507H10.0045V12.3717C10.0045 12.8073 10.3335 13.2429 10.6626 13.2429ZM35.1472 67.6087H1.31638V9.84507H4.40986V60.9872C4.40986 61.5099 4.67313 61.8584 5.06804 61.8584H31.4614C31.8563 61.8584 32.1196 61.5099 32.1196 60.9872V9.84507H35.213V67.6087H35.1472Z" fill="black" fill-opacity="0.2"/>
<path d="M18.2319 6.01329C18.7044 6.01329 19.0875 5.50619 19.0875 4.88067C19.0875 4.25514 18.7044 3.74805 18.2319 3.74805C17.7593 3.74805 17.3762 4.25514 17.3762 4.88067C17.3762 5.50619 17.7593 6.01329 18.2319 6.01329Z" fill="#416CEA"/>
<path d="M18.2319 6.01329C18.7044 6.01329 19.0875 5.50619 19.0875 4.88067C19.0875 4.25514 18.7044 3.74805 18.2319 3.74805C17.7593 3.74805 17.3762 4.25514 17.3762 4.88067C17.3762 5.50619 17.7593 6.01329 18.2319 6.01329Z" fill="black" fill-opacity="0.2"/>
<path d="M22.5104 24.2204C22.6421 24.3947 22.8395 24.4818 22.9712 24.4818C23.1028 24.4818 23.3003 24.3947 23.4319 24.2204L24.3534 23.0007L25.2748 24.2204C25.4065 24.3947 25.6039 24.4818 25.7356 24.4818C25.8672 24.4818 26.0647 24.3947 26.1963 24.2204C26.4596 23.8719 26.4596 23.3492 26.1963 23.0007L25.2748 21.7809L26.1963 20.5612C26.4596 20.2127 26.4596 19.69 26.1963 19.3415C25.933 18.993 25.5381 18.993 25.2748 19.3415L24.3534 20.5612L23.4319 19.3415C23.1686 18.993 22.7737 18.993 22.5104 19.3415C22.2472 19.69 22.2472 20.2127 22.5104 20.5612L23.4319 21.7809L22.5104 23.0007C22.2472 23.3492 22.2472 23.8719 22.5104 24.2204Z" fill="#416CEA"/>
<path d="M22.5104 24.2204C22.6421 24.3947 22.8395 24.4818 22.9712 24.4818C23.1028 24.4818 23.3003 24.3947 23.4319 24.2204L24.3534 23.0007L25.2748 24.2204C25.4065 24.3947 25.6039 24.4818 25.7356 24.4818C25.8672 24.4818 26.0647 24.3947 26.1963 24.2204C26.4596 23.8719 26.4596 23.3492 26.1963 23.0007L25.2748 21.7809L26.1963 20.5612C26.4596 20.2127 26.4596 19.69 26.1963 19.3415C25.933 18.993 25.5381 18.993 25.2748 19.3415L24.3534 20.5612L23.4319 19.3415C23.1686 18.993 22.7737 18.993 22.5104 19.3415C22.2472 19.69 22.2472 20.2127 22.5104 20.5612L23.4319 21.7809L22.5104 23.0007C22.2472 23.3492 22.2472 23.8719 22.5104 24.2204Z" fill="black" fill-opacity="0.2"/>
<path d="M23.563 34.415C23.6946 34.5892 23.8921 34.6763 24.0237 34.6763C24.1554 34.6763 24.3528 34.5892 24.4845 34.415L27.3147 30.6686C27.5779 30.3201 27.5779 29.7974 27.3147 29.4489C27.0514 29.1004 26.6565 29.1004 26.3932 29.4489L24.0237 32.5854L23.2339 31.5399C22.9706 31.1914 22.5757 31.1914 22.3124 31.5399C22.0492 31.8884 22.0492 32.4111 22.3124 32.7596L23.563 34.415Z" fill="#416CEA"/>
<path d="M23.563 34.415C23.6946 34.5892 23.8921 34.6763 24.0237 34.6763C24.1554 34.6763 24.3528 34.5892 24.4845 34.415L27.3147 30.6686C27.5779 30.3201 27.5779 29.7974 27.3147 29.4489C27.0514 29.1004 26.6565 29.1004 26.3932 29.4489L24.0237 32.5854L23.2339 31.5399C22.9706 31.1914 22.5757 31.1914 22.3124 31.5399C22.0492 31.8884 22.0492 32.4111 22.3124 32.7596L23.563 34.415Z" fill="black" fill-opacity="0.2"/>
<path d="M23.563 44.6083C23.6946 44.7826 23.8921 44.8697 24.0237 44.8697C24.1554 44.8697 24.3528 44.7826 24.4845 44.6083L27.3147 40.862C27.5779 40.5135 27.5779 39.9907 27.3147 39.6422C27.0514 39.2937 26.6565 39.2937 26.3932 39.6422L24.0237 42.7787L23.2339 41.7332C22.9706 41.3847 22.5757 41.3847 22.3124 41.7332C22.0492 42.0817 22.0492 42.6045 22.3124 42.953L23.563 44.6083Z" fill="#416CEA"/>
<path d="M23.563 44.6083C23.6946 44.7826 23.8921 44.8697 24.0237 44.8697C24.1554 44.8697 24.3528 44.7826 24.4845 44.6083L27.3147 40.862C27.5779 40.5135 27.5779 39.9907 27.3147 39.6422C27.0514 39.2937 26.6565 39.2937 26.3932 39.6422L24.0237 42.7787L23.2339 41.7332C22.9706 41.3847 22.5757 41.3847 22.3124 41.7332C22.0492 42.0817 22.0492 42.6045 22.3124 42.953L23.563 44.6083Z" fill="black" fill-opacity="0.2"/>
<path d="M23.563 54.8017C23.6946 54.9759 23.8921 55.0631 24.0237 55.0631C24.1554 55.0631 24.3528 54.9759 24.4845 54.8017L27.3147 51.0553C27.5779 50.7068 27.5779 50.1841 27.3147 49.8356C27.0514 49.4871 26.6565 49.4871 26.3932 49.8356L24.0237 52.9721L23.2339 51.9266C22.9706 51.5781 22.5757 51.5781 22.3124 51.9266C22.0492 52.2751 22.0492 52.7978 22.3124 53.1463L23.563 54.8017Z" fill="#416CEA"/>
<path d="M23.563 54.8017C23.6946 54.9759 23.8921 55.0631 24.0237 55.0631C24.1554 55.0631 24.3528 54.9759 24.4845 54.8017L27.3147 51.0553C27.5779 50.7068 27.5779 50.1841 27.3147 49.8356C27.0514 49.4871 26.6565 49.4871 26.3932 49.8356L24.0237 52.9721L23.2339 51.9266C22.9706 51.5781 22.5757 51.5781 22.3124 51.9266C22.0492 52.2751 22.0492 52.7978 22.3124 53.1463L23.563 54.8017Z" fill="black" fill-opacity="0.2"/>
</svg>
