<svg width="94" height="94" viewBox="0 0 94 94" fill="none" xmlns="http://www.w3.org/2000/svg">
<path d="M60.4255 86.5362C60.4255 84.7986 59.0134 83.3867 57.2754 83.3867C53.0951 83.559 53.0989 89.5133 57.2754 89.6856C59.0134 89.6856 60.4255 88.2738 60.4255 86.5362ZM55.9981 86.5362C55.9981 85.8322 56.5712 85.2592 57.2754 85.2592C58.9684 85.3229 58.9684 87.7496 57.2754 87.8133C56.5712 87.8133 55.9981 87.2402 55.9981 86.5362Z" fill="#416CEA"/>
<path d="M60.4255 86.5362C60.4255 84.7986 59.0134 83.3867 57.2754 83.3867C53.0951 83.559 53.0989 89.5133 57.2754 89.6856C59.0134 89.6856 60.4255 88.2738 60.4255 86.5362ZM55.9981 86.5362C55.9981 85.8322 56.5712 85.2592 57.2754 85.2592C58.9684 85.3229 58.9684 87.7496 57.2754 87.8133C56.5712 87.8133 55.9981 87.2402 55.9981 86.5362Z" fill="black" fill-opacity="0.2"/>
<path d="M91.7782 82.1888C93.3514 79.3652 94.123 76.3467 93.9619 73.5456C93.8308 71.2238 91.9018 69.4038 89.5794 69.4038H78.9682L71.533 61.9702C71.166 61.6032 70.5741 61.6032 70.2071 61.9702C69.84 62.3372 69.84 62.9289 70.2071 63.2959L76.3201 69.4075H52.3552L47.5607 60.5285H67.829C68.6043 60.5472 69.0575 59.5772 68.5482 58.9967C71.2938 49.0657 75.5526 33.9098 76.4404 30.7451L81.366 30.0598C84.6097 29.6067 87.288 27.2811 88.1944 24.1354L90.513 16.0577C91.2622 13.4437 90.6853 10.6275 88.9623 8.52293L87.6026 6.86017C85.9432 4.79305 82.5497 5.48953 81.838 8.04358L78.8076 18.6007L74.4701 21.0011L67.9826 19.1399L65.5816 14.8034L68.6119 4.2463C69.3648 1.70357 66.859 -0.689415 64.3531 0.183089L62.3192 0.872147C59.7459 1.74471 57.7606 3.82683 57.0077 6.43706L54.6891 14.5148C53.7864 17.6604 54.8239 21.0533 57.3335 23.158L61.1467 26.3523C60.3526 29.0636 56.959 40.6349 54.1648 50.0684C54.0187 50.5627 54.2996 51.087 54.7978 51.233C55.296 51.379 55.8166 51.0982 55.9627 50.6001C59.1353 39.8896 63.0795 26.4267 63.1207 26.2925C63.2255 25.9368 63.1094 25.551 62.8248 25.3114L58.5434 21.7238C56.5995 20.0948 55.7978 17.4696 56.4946 15.0317L58.8132 6.95392C59.3938 4.93166 60.9295 3.32135 62.926 2.64356L64.9599 1.9545C66.0312 1.56128 67.1624 2.63607 66.8178 3.72587L63.6789 14.653C63.6115 14.8927 63.6415 15.1473 63.7613 15.3646L66.5406 20.379C66.6605 20.5962 66.8628 20.7572 67.1025 20.8246L74.3355 22.8993C74.5752 22.9667 74.8299 22.9405 75.0472 22.8169L80.0627 20.0383C80.2799 19.9184 80.441 19.7162 80.5084 19.4765L83.6473 8.54938C83.932 7.44468 85.4602 7.1263 86.1607 8.03259L87.5204 9.69534C88.8538 11.3243 89.2996 13.5039 88.719 15.5298L86.4004 23.6076C85.6999 26.0455 83.6248 27.8431 81.1152 28.1951L75.5828 28.9665C75.2158 29.019 74.9123 29.2811 74.8112 29.6406C74.7625 29.8129 70.1104 46.3467 67.0351 57.458L66.0575 56.4806C65.5968 56.02 65.0536 55.6754 64.4618 55.462C66.4808 48.2194 68.9566 39.3473 70.0991 35.247C70.5561 33.6143 69.6009 31.9066 67.9715 31.4384C66.342 30.9703 64.6265 31.914 64.1471 33.5393C62.8548 37.9171 59.9519 47.7509 57.7531 55.1961H38.4476V51.2602L43.9163 44.7704C44.628 43.9278 45.0175 42.8567 45.0175 41.752V36.337C50.1117 34.6817 50.6697 27.0797 45.0175 25.8623V23.2746C48.8869 22.9451 52.1044 20.627 52.1044 18.0093C52.1044 17.148 51.7298 15.534 49.2314 14.3843C47.3099 13.5005 44.508 13.0511 40.901 13.0511C25.7311 13.0511 18.1012 17.7509 15.1085 20.2675C15.0523 15.1931 15.7377 7.87163 20.596 4.08193C27.754 -0.966149 36.9385 3.69995 42.0101 7.53475C42.7218 8.05904 43.1488 8.90539 43.1488 9.79294C43.1488 10.3097 43.5683 10.7292 44.0852 10.7292C44.6021 10.7292 45.0217 10.3097 45.0217 9.79294C45.0217 8.31368 44.31 6.90566 43.1226 6.02932C37.2905 1.59538 27.8434 -2.72621 20.0898 2.16838C16.9771 -0.542887 12.235 2.36686 13.2352 6.37013C10.4559 7.69581 8.39569 9.16759 7.01353 10.3322C5.74002 11.4033 5.13323 13.0959 5.43288 14.7437L6.84132 22.4657V28.1317C4.57889 31.8242 7.80395 36.7487 12.0292 36.6401H13.3476V41.1677C13.3476 42.6918 14.093 44.1261 15.3441 45.0025L26.1125 52.5447C26.9029 53.0989 27.8318 53.391 28.7982 53.391H34.4767C35.2184 53.391 35.9375 53.215 36.5818 52.8892V56.1061C36.5668 56.151 34.2932 61.9256 34.282 61.9668L33.3455 64.7793C33.2931 64.6894 32.0758 61.6036 32.0009 61.656C31.9335 61.5736 31.8473 61.5062 31.7537 61.4501L21.7936 55.7392V52.1628C21.7936 51.646 21.3741 51.2265 20.8571 51.2265C20.3402 51.2265 19.9207 51.646 19.9207 52.1628V55.8365L16.3736 58.7013C16.1413 58.8886 16.0027 59.1881 16.0327 59.4877L14.5794 60.5101C14.276 60.7235 14.1262 61.098 14.2011 61.465L16.8755 74.4227C14.8341 74.6886 13.1936 76.2464 12.8676 78.3323L11.714 85.6685L8.17429 92.121L2.0426 92.1322L4.89687 74.7032C5.49618 71.0482 7.47391 67.8014 10.3206 65.7941L12.6917 64.1239C13.6767 63.3861 12.6542 61.9106 11.6129 62.5922L9.24183 64.2624C5.98311 66.5543 3.72816 70.2505 3.04648 74.3996L0.012421 92.9138C-0.0325274 93.1834 0.0461321 93.4606 0.22218 93.6703C0.398229 93.88 0.660427 93.9998 0.937606 93.9998H51.6548C52.2129 94.0111 52.6848 93.4643 52.58 92.9138L52.4714 92.2472C53.7711 93.3407 55.4455 93.9998 57.2733 93.9998H62.2064C66.0045 93.9998 69.151 91.1462 69.6117 87.4725H69.99C70.4545 91.1462 73.5971 93.9998 77.3953 93.9998H82.3284C85.074 93.9998 87.5911 92.4981 88.8984 90.0864C89.1456 89.6333 88.977 89.0641 88.5201 88.8169C88.0668 88.5698 87.4975 88.7383 87.2503 89.1952C86.269 91.0039 84.3848 92.1274 82.3322 92.1274C83.6619 90.9552 84.5683 89.3188 84.8006 87.4725H91.3518C94.6293 87.3752 94.9738 82.7839 91.7713 82.1848L91.7782 82.1888ZM92.0928 73.6505C92.2464 76.3431 91.3512 79.4176 89.6244 82.1514H88.1411L86.9275 79.2716C86.7814 78.9233 86.4406 78.6986 86.066 78.6986H74.1469C73.7686 78.6986 73.4314 78.9233 73.2854 79.2716L72.0718 82.1514H70.5885C69.2962 80.103 68.4684 77.8635 68.1987 75.7402H70.3487C72.7984 75.7439 74.7799 73.7217 74.7387 71.2763H85.4669C85.4369 73.0701 86.4932 74.6991 88.1488 75.3957C88.6133 75.5942 89.1751 75.3807 89.3773 74.8977C89.5796 74.4221 89.3549 73.8716 88.8792 73.6694C87.9203 73.2649 87.3135 72.3137 87.3434 71.2727H89.5758C90.9092 71.2727 92.0143 72.3174 92.0892 73.6507L92.0928 73.6505ZM86.1109 82.1514H74.1026L74.7693 80.5711H85.4448L86.1109 82.1514ZM72.8733 71.2722C72.9145 72.6878 71.7721 73.8674 70.3562 73.8636H68.12C68.0863 72.4555 69.2287 71.2647 70.6409 71.2722H72.8733ZM65.9325 34.0664C66.4457 32.5423 68.6594 33.1751 68.2885 34.7405C67.1311 38.886 64.614 47.9071 62.5838 55.1951H59.6959C61.8759 47.8177 64.6739 38.3394 65.9362 34.0665L65.9325 34.0664ZM45.2596 74.8328L43.3343 65.4893C47.522 69.3952 47.5108 73.9377 48.4359 79.1957L47.5819 77.2184C47.1249 76.1585 46.2934 75.3121 45.2596 74.8328ZM37.9592 57.6809C38.7608 58.3362 39.1428 59.3885 38.9256 60.4296L37.9667 64.9983C37.9554 64.9796 37.9217 64.9234 37.9105 64.9085L36.1986 62.1747L37.8468 57.9841L37.9667 57.6845L37.9592 57.6809ZM40.0755 75.1396C40.0755 75.1396 38.6783 68.3613 38.6783 68.3576C38.9967 68.2565 39.2514 67.9831 39.3189 67.6536C39.5773 66.414 40.1317 63.7889 40.3864 62.568C40.4426 62.6242 40.8883 63.0623 40.9295 63.1073L43.6115 76.1023C43.7426 76.664 43.2706 77.2407 42.6938 77.2258H41.2704C40.8284 77.2258 40.4426 76.9112 40.3527 76.4768L40.0755 75.1362L40.0755 75.1396ZM39.4499 18.8127C39.1128 18.618 38.6896 18.6516 38.3861 18.9026C37.7156 19.4568 35.633 20.8911 34.101 20.8911C32.1233 20.8911 30.0182 19.9811 28.872 18.9886C31.8012 16.6668 36.9215 14.6109 41.9447 14.948C43.3456 15.7119 44.0948 16.9178 43.87 18.0637C43.5666 19.5917 41.7012 20.4229 39.7422 20.7563L39.9033 19.7826C39.967 19.3969 39.7872 19.0149 39.4463 18.8165L39.4499 18.8127ZM47.1848 30.7215C47.1848 32.2607 46.3158 33.6313 45.0048 34.3129V27.7855C46.2634 28.1675 47.1848 29.3359 47.1848 30.7215ZM50.2189 18.0151C50.0578 20.086 46.7878 21.3406 44.7089 21.4304L44.4243 20.6814C45.9899 19.2583 46.2184 16.9066 44.9861 15.1876C48.5708 15.6894 50.2188 16.8579 50.2188 18.0187L50.2189 18.0151ZM8.69753 23.3216H13.3309V26.4823C12.0274 25.5611 10.0609 25.606 8.69753 26.3737V23.3216ZM14.9754 5.60116C14.7356 3.67631 16.9044 2.30941 18.5337 3.34671C17.8895 3.93091 17.4699 4.45141 17.2414 4.76979C16.4698 5.0207 15.7208 5.30157 14.9754 5.60116ZM8.20312 11.7727C9.62651 10.5182 12.6567 8.52967 15.6159 7.36496C13.0538 12.473 13.1175 18.9517 13.2561 21.4529H8.54027L7.25927 14.4163C7.07948 13.4277 7.43899 12.4169 8.20312 11.7727ZM12.0125 34.7736C9.78013 34.7736 7.96339 32.9574 7.96339 30.7254C7.96339 29.0364 9.33807 27.6621 11.0274 27.6621C12.2971 27.6621 13.3272 28.6956 13.3309 29.9614V34.7735L12.0125 34.7736ZM28.778 51.5248C28.1974 51.5248 27.6393 51.3488 27.1673 51.0155L16.3988 43.4733C15.6497 42.949 15.2002 42.0877 15.2002 41.174V22.7384C18.0881 19.5177 25.0548 16.6941 30.1418 15.8778C26.5646 17.9113 24.3847 20.4615 23.6205 21.4502H20.3693C19.8524 21.4502 19.4328 21.8696 19.4328 22.3864C19.4328 22.9032 19.8524 23.3226 20.3693 23.3226H24.0925C24.3996 23.3226 24.6918 23.1691 24.8641 22.9144C24.8866 22.8845 25.7443 21.6636 27.3962 20.1881C29.269 21.9183 31.8236 22.6897 34.0935 22.7646C35.3483 22.7646 36.6593 22.2066 37.6894 21.6224C37.5433 22.2141 38.064 22.8208 38.6707 22.7608C40.2963 22.6448 41.701 22.3002 42.8209 21.7572L43.1243 22.5586V41.7583C43.1243 42.4211 42.8884 43.0615 42.4651 43.567L36.7754 50.3154L36.5993 50.5251C36.0637 51.158 35.2808 51.525 34.453 51.525H28.7745L28.778 51.5248ZM21.5712 63.216L18.2975 59.5461L20.9307 57.4189L29.5496 62.3584L24.2457 66.2044L21.575 63.2122L21.5712 63.216ZM17.1026 61.0215L20.0055 64.2758L22.4439 76.106C22.5001 76.3831 22.4327 76.6678 22.2529 76.885C22.0731 77.1022 21.8109 77.2295 21.5262 77.2295H20.1028C19.6609 77.2295 19.2751 76.9149 19.1852 76.4805C19.1215 76.1547 16.2785 62.3964 16.1361 61.6994L17.0988 61.0216L17.1026 61.0215ZM10.2854 92.13L13.4093 86.4378C13.4617 86.3442 13.4954 86.2393 13.5142 86.1345L14.6941 78.6372C14.8964 77.3415 15.9452 76.3828 17.2299 76.2743L17.3498 76.8622C17.6195 78.1617 18.7732 79.1053 20.1029 79.1053H21.5262C22.3728 79.1053 23.1668 78.7271 23.7025 78.0718C24.2381 77.4127 24.4479 76.5626 24.2756 75.7312L22.4889 67.0693L23.4028 68.0954C23.5863 68.3013 23.8448 68.4099 24.1032 68.4099C24.2943 68.4099 24.4853 68.35 24.6539 68.2302L30.8568 63.7326L32.5536 67.8294C32.7034 68.1889 33.063 68.4211 33.4525 68.4062C33.8421 68.3912 34.183 68.1365 34.3066 67.7658L35.4115 64.4553L36.2318 65.766L38.011 74.398H28.0404C27.5235 74.398 27.104 74.8174 27.104 75.3342C27.104 75.851 27.5235 76.2704 28.0404 76.2704H38.3975L38.5211 76.8659C38.7908 78.1654 39.9445 79.109 41.2742 79.109H42.6976C43.885 79.124 45.0012 78.3151 45.3607 77.1879C45.6679 77.1205 49.4773 86.4789 49.6908 86.8314L50.5598 92.1416L10.2854 92.13ZM49.3308 73.0684C48.3532 66.9905 44.8248 64.3616 40.8243 60.3658C40.9592 59.1749 40.6296 57.9989 39.9366 57.0628H62.9425C63.6055 57.0628 64.2498 57.3249 64.7218 57.8005L65.5646 58.6431H45.9896C45.66 58.6431 45.3528 58.8154 45.1842 59.1C45.0157 59.3846 45.0082 59.7329 45.1655 60.025L50.9714 70.7767C51.1362 71.08 51.4508 71.2673 51.7954 71.2673H67.04C65.1859 73.8699 66.7816 79.2888 68.4334 82.1839C68.0738 82.2401 67.7367 82.3711 67.437 82.5584C65.2533 76.6939 57.9042 73.7804 52.2221 76.8549C51.7652 77.0946 51.5854 77.6601 51.8251 78.117C52.0648 78.5738 52.6304 78.7536 53.0874 78.5139C58.661 75.518 65.695 79.379 66.2646 85.5992H64.6726C63.7624 78.6112 54.5476 76.6751 50.8923 82.652L49.3228 73.0688L49.3308 73.0684ZM51.6794 86.5351C51.6794 83.4493 54.189 80.944 57.2717 80.944C64.6919 81.2511 64.6919 91.8233 57.2717 92.13C54.189 92.13 51.6794 89.6209 51.6794 86.5351ZM62.2119 92.1299C63.5416 90.9577 64.4481 89.3175 64.6803 87.475H67.2574C67.4372 87.475 67.602 87.4226 67.7443 87.3365C67.3548 90.044 65.025 92.1299 62.2119 92.1337L62.2119 92.1299ZM77.4009 92.1299C74.6366 92.1299 72.3329 90.1152 71.8872 87.475H82.9184C82.4727 90.1152 80.169 92.1299 77.4009 92.1299ZM91.3577 85.6026H68.8571C67.8196 85.5727 67.8083 84.056 68.8571 84.0223H70.0819H91.358C92.3955 84.0523 92.4103 85.569 91.3577 85.6026Z" fill="#416CEA"/>
<path d="M91.7782 82.1888C93.3514 79.3652 94.123 76.3467 93.9619 73.5456C93.8308 71.2238 91.9018 69.4038 89.5794 69.4038H78.9682L71.533 61.9702C71.166 61.6032 70.5741 61.6032 70.2071 61.9702C69.84 62.3372 69.84 62.9289 70.2071 63.2959L76.3201 69.4075H52.3552L47.5607 60.5285H67.829C68.6043 60.5472 69.0575 59.5772 68.5482 58.9967C71.2938 49.0657 75.5526 33.9098 76.4404 30.7451L81.366 30.0598C84.6097 29.6067 87.288 27.2811 88.1944 24.1354L90.513 16.0577C91.2622 13.4437 90.6853 10.6275 88.9623 8.52293L87.6026 6.86017C85.9432 4.79305 82.5497 5.48953 81.838 8.04358L78.8076 18.6007L74.4701 21.0011L67.9826 19.1399L65.5816 14.8034L68.6119 4.2463C69.3648 1.70357 66.859 -0.689415 64.3531 0.183089L62.3192 0.872147C59.7459 1.74471 57.7606 3.82683 57.0077 6.43706L54.6891 14.5148C53.7864 17.6604 54.8239 21.0533 57.3335 23.158L61.1467 26.3523C60.3526 29.0636 56.959 40.6349 54.1648 50.0684C54.0187 50.5627 54.2996 51.087 54.7978 51.233C55.296 51.379 55.8166 51.0982 55.9627 50.6001C59.1353 39.8896 63.0795 26.4267 63.1207 26.2925C63.2255 25.9368 63.1094 25.551 62.8248 25.3114L58.5434 21.7238C56.5995 20.0948 55.7978 17.4696 56.4946 15.0317L58.8132 6.95392C59.3938 4.93166 60.9295 3.32135 62.926 2.64356L64.9599 1.9545C66.0312 1.56128 67.1624 2.63607 66.8178 3.72587L63.6789 14.653C63.6115 14.8927 63.6415 15.1473 63.7613 15.3646L66.5406 20.379C66.6605 20.5962 66.8628 20.7572 67.1025 20.8246L74.3355 22.8993C74.5752 22.9667 74.8299 22.9405 75.0472 22.8169L80.0627 20.0383C80.2799 19.9184 80.441 19.7162 80.5084 19.4765L83.6473 8.54938C83.932 7.44468 85.4602 7.1263 86.1607 8.03259L87.5204 9.69534C88.8538 11.3243 89.2996 13.5039 88.719 15.5298L86.4004 23.6076C85.6999 26.0455 83.6248 27.8431 81.1152 28.1951L75.5828 28.9665C75.2158 29.019 74.9123 29.2811 74.8112 29.6406C74.7625 29.8129 70.1104 46.3467 67.0351 57.458L66.0575 56.4806C65.5968 56.02 65.0536 55.6754 64.4618 55.462C66.4808 48.2194 68.9566 39.3473 70.0991 35.247C70.5561 33.6143 69.6009 31.9066 67.9715 31.4384C66.342 30.9703 64.6265 31.914 64.1471 33.5393C62.8548 37.9171 59.9519 47.7509 57.7531 55.1961H38.4476V51.2602L43.9163 44.7704C44.628 43.9278 45.0175 42.8567 45.0175 41.752V36.337C50.1117 34.6817 50.6697 27.0797 45.0175 25.8623V23.2746C48.8869 22.9451 52.1044 20.627 52.1044 18.0093C52.1044 17.148 51.7298 15.534 49.2314 14.3843C47.3099 13.5005 44.508 13.0511 40.901 13.0511C25.7311 13.0511 18.1012 17.7509 15.1085 20.2675C15.0523 15.1931 15.7377 7.87163 20.596 4.08193C27.754 -0.966149 36.9385 3.69995 42.0101 7.53475C42.7218 8.05904 43.1488 8.90539 43.1488 9.79294C43.1488 10.3097 43.5683 10.7292 44.0852 10.7292C44.6021 10.7292 45.0217 10.3097 45.0217 9.79294C45.0217 8.31368 44.31 6.90566 43.1226 6.02932C37.2905 1.59538 27.8434 -2.72621 20.0898 2.16838C16.9771 -0.542887 12.235 2.36686 13.2352 6.37013C10.4559 7.69581 8.39569 9.16759 7.01353 10.3322C5.74002 11.4033 5.13323 13.0959 5.43288 14.7437L6.84132 22.4657V28.1317C4.57889 31.8242 7.80395 36.7487 12.0292 36.6401H13.3476V41.1677C13.3476 42.6918 14.093 44.1261 15.3441 45.0025L26.1125 52.5447C26.9029 53.0989 27.8318 53.391 28.7982 53.391H34.4767C35.2184 53.391 35.9375 53.215 36.5818 52.8892V56.1061C36.5668 56.151 34.2932 61.9256 34.282 61.9668L33.3455 64.7793C33.2931 64.6894 32.0758 61.6036 32.0009 61.656C31.9335 61.5736 31.8473 61.5062 31.7537 61.4501L21.7936 55.7392V52.1628C21.7936 51.646 21.3741 51.2265 20.8571 51.2265C20.3402 51.2265 19.9207 51.646 19.9207 52.1628V55.8365L16.3736 58.7013C16.1413 58.8886 16.0027 59.1881 16.0327 59.4877L14.5794 60.5101C14.276 60.7235 14.1262 61.098 14.2011 61.465L16.8755 74.4227C14.8341 74.6886 13.1936 76.2464 12.8676 78.3323L11.714 85.6685L8.17429 92.121L2.0426 92.1322L4.89687 74.7032C5.49618 71.0482 7.47391 67.8014 10.3206 65.7941L12.6917 64.1239C13.6767 63.3861 12.6542 61.9106 11.6129 62.5922L9.24183 64.2624C5.98311 66.5543 3.72816 70.2505 3.04648 74.3996L0.012421 92.9138C-0.0325274 93.1834 0.0461321 93.4606 0.22218 93.6703C0.398229 93.88 0.660427 93.9998 0.937606 93.9998H51.6548C52.2129 94.0111 52.6848 93.4643 52.58 92.9138L52.4714 92.2472C53.7711 93.3407 55.4455 93.9998 57.2733 93.9998H62.2064C66.0045 93.9998 69.151 91.1462 69.6117 87.4725H69.99C70.4545 91.1462 73.5971 93.9998 77.3953 93.9998H82.3284C85.074 93.9998 87.5911 92.4981 88.8984 90.0864C89.1456 89.6333 88.977 89.0641 88.5201 88.8169C88.0668 88.5698 87.4975 88.7383 87.2503 89.1952C86.269 91.0039 84.3848 92.1274 82.3322 92.1274C83.6619 90.9552 84.5683 89.3188 84.8006 87.4725H91.3518C94.6293 87.3752 94.9738 82.7839 91.7713 82.1848L91.7782 82.1888ZM92.0928 73.6505C92.2464 76.3431 91.3512 79.4176 89.6244 82.1514H88.1411L86.9275 79.2716C86.7814 78.9233 86.4406 78.6986 86.066 78.6986H74.1469C73.7686 78.6986 73.4314 78.9233 73.2854 79.2716L72.0718 82.1514H70.5885C69.2962 80.103 68.4684 77.8635 68.1987 75.7402H70.3487C72.7984 75.7439 74.7799 73.7217 74.7387 71.2763H85.4669C85.4369 73.0701 86.4932 74.6991 88.1488 75.3957C88.6133 75.5942 89.1751 75.3807 89.3773 74.8977C89.5796 74.4221 89.3549 73.8716 88.8792 73.6694C87.9203 73.2649 87.3135 72.3137 87.3434 71.2727H89.5758C90.9092 71.2727 92.0143 72.3174 92.0892 73.6507L92.0928 73.6505ZM86.1109 82.1514H74.1026L74.7693 80.5711H85.4448L86.1109 82.1514ZM72.8733 71.2722C72.9145 72.6878 71.7721 73.8674 70.3562 73.8636H68.12C68.0863 72.4555 69.2287 71.2647 70.6409 71.2722H72.8733ZM65.9325 34.0664C66.4457 32.5423 68.6594 33.1751 68.2885 34.7405C67.1311 38.886 64.614 47.9071 62.5838 55.1951H59.6959C61.8759 47.8177 64.6739 38.3394 65.9362 34.0665L65.9325 34.0664ZM45.2596 74.8328L43.3343 65.4893C47.522 69.3952 47.5108 73.9377 48.4359 79.1957L47.5819 77.2184C47.1249 76.1585 46.2934 75.3121 45.2596 74.8328ZM37.9592 57.6809C38.7608 58.3362 39.1428 59.3885 38.9256 60.4296L37.9667 64.9983C37.9554 64.9796 37.9217 64.9234 37.9105 64.9085L36.1986 62.1747L37.8468 57.9841L37.9667 57.6845L37.9592 57.6809ZM40.0755 75.1396C40.0755 75.1396 38.6783 68.3613 38.6783 68.3576C38.9967 68.2565 39.2514 67.9831 39.3189 67.6536C39.5773 66.414 40.1317 63.7889 40.3864 62.568C40.4426 62.6242 40.8883 63.0623 40.9295 63.1073L43.6115 76.1023C43.7426 76.664 43.2706 77.2407 42.6938 77.2258H41.2704C40.8284 77.2258 40.4426 76.9112 40.3527 76.4768L40.0755 75.1362L40.0755 75.1396ZM39.4499 18.8127C39.1128 18.618 38.6896 18.6516 38.3861 18.9026C37.7156 19.4568 35.633 20.8911 34.101 20.8911C32.1233 20.8911 30.0182 19.9811 28.872 18.9886C31.8012 16.6668 36.9215 14.6109 41.9447 14.948C43.3456 15.7119 44.0948 16.9178 43.87 18.0637C43.5666 19.5917 41.7012 20.4229 39.7422 20.7563L39.9033 19.7826C39.967 19.3969 39.7872 19.0149 39.4463 18.8165L39.4499 18.8127ZM47.1848 30.7215C47.1848 32.2607 46.3158 33.6313 45.0048 34.3129V27.7855C46.2634 28.1675 47.1848 29.3359 47.1848 30.7215ZM50.2189 18.0151C50.0578 20.086 46.7878 21.3406 44.7089 21.4304L44.4243 20.6814C45.9899 19.2583 46.2184 16.9066 44.9861 15.1876C48.5708 15.6894 50.2188 16.8579 50.2188 18.0187L50.2189 18.0151ZM8.69753 23.3216H13.3309V26.4823C12.0274 25.5611 10.0609 25.606 8.69753 26.3737V23.3216ZM14.9754 5.60116C14.7356 3.67631 16.9044 2.30941 18.5337 3.34671C17.8895 3.93091 17.4699 4.45141 17.2414 4.76979C16.4698 5.0207 15.7208 5.30157 14.9754 5.60116ZM8.20312 11.7727C9.62651 10.5182 12.6567 8.52967 15.6159 7.36496C13.0538 12.473 13.1175 18.9517 13.2561 21.4529H8.54027L7.25927 14.4163C7.07948 13.4277 7.43899 12.4169 8.20312 11.7727ZM12.0125 34.7736C9.78013 34.7736 7.96339 32.9574 7.96339 30.7254C7.96339 29.0364 9.33807 27.6621 11.0274 27.6621C12.2971 27.6621 13.3272 28.6956 13.3309 29.9614V34.7735L12.0125 34.7736ZM28.778 51.5248C28.1974 51.5248 27.6393 51.3488 27.1673 51.0155L16.3988 43.4733C15.6497 42.949 15.2002 42.0877 15.2002 41.174V22.7384C18.0881 19.5177 25.0548 16.6941 30.1418 15.8778C26.5646 17.9113 24.3847 20.4615 23.6205 21.4502H20.3693C19.8524 21.4502 19.4328 21.8696 19.4328 22.3864C19.4328 22.9032 19.8524 23.3226 20.3693 23.3226H24.0925C24.3996 23.3226 24.6918 23.1691 24.8641 22.9144C24.8866 22.8845 25.7443 21.6636 27.3962 20.1881C29.269 21.9183 31.8236 22.6897 34.0935 22.7646C35.3483 22.7646 36.6593 22.2066 37.6894 21.6224C37.5433 22.2141 38.064 22.8208 38.6707 22.7608C40.2963 22.6448 41.701 22.3002 42.8209 21.7572L43.1243 22.5586V41.7583C43.1243 42.4211 42.8884 43.0615 42.4651 43.567L36.7754 50.3154L36.5993 50.5251C36.0637 51.158 35.2808 51.525 34.453 51.525H28.7745L28.778 51.5248ZM21.5712 63.216L18.2975 59.5461L20.9307 57.4189L29.5496 62.3584L24.2457 66.2044L21.575 63.2122L21.5712 63.216ZM17.1026 61.0215L20.0055 64.2758L22.4439 76.106C22.5001 76.3831 22.4327 76.6678 22.2529 76.885C22.0731 77.1022 21.8109 77.2295 21.5262 77.2295H20.1028C19.6609 77.2295 19.2751 76.9149 19.1852 76.4805C19.1215 76.1547 16.2785 62.3964 16.1361 61.6994L17.0988 61.0216L17.1026 61.0215ZM10.2854 92.13L13.4093 86.4378C13.4617 86.3442 13.4954 86.2393 13.5142 86.1345L14.6941 78.6372C14.8964 77.3415 15.9452 76.3828 17.2299 76.2743L17.3498 76.8622C17.6195 78.1617 18.7732 79.1053 20.1029 79.1053H21.5262C22.3728 79.1053 23.1668 78.7271 23.7025 78.0718C24.2381 77.4127 24.4479 76.5626 24.2756 75.7312L22.4889 67.0693L23.4028 68.0954C23.5863 68.3013 23.8448 68.4099 24.1032 68.4099C24.2943 68.4099 24.4853 68.35 24.6539 68.2302L30.8568 63.7326L32.5536 67.8294C32.7034 68.1889 33.063 68.4211 33.4525 68.4062C33.8421 68.3912 34.183 68.1365 34.3066 67.7658L35.4115 64.4553L36.2318 65.766L38.011 74.398H28.0404C27.5235 74.398 27.104 74.8174 27.104 75.3342C27.104 75.851 27.5235 76.2704 28.0404 76.2704H38.3975L38.5211 76.8659C38.7908 78.1654 39.9445 79.109 41.2742 79.109H42.6976C43.885 79.124 45.0012 78.3151 45.3607 77.1879C45.6679 77.1205 49.4773 86.4789 49.6908 86.8314L50.5598 92.1416L10.2854 92.13ZM49.3308 73.0684C48.3532 66.9905 44.8248 64.3616 40.8243 60.3658C40.9592 59.1749 40.6296 57.9989 39.9366 57.0628H62.9425C63.6055 57.0628 64.2498 57.3249 64.7218 57.8005L65.5646 58.6431H45.9896C45.66 58.6431 45.3528 58.8154 45.1842 59.1C45.0157 59.3846 45.0082 59.7329 45.1655 60.025L50.9714 70.7767C51.1362 71.08 51.4508 71.2673 51.7954 71.2673H67.04C65.1859 73.8699 66.7816 79.2888 68.4334 82.1839C68.0738 82.2401 67.7367 82.3711 67.437 82.5584C65.2533 76.6939 57.9042 73.7804 52.2221 76.8549C51.7652 77.0946 51.5854 77.6601 51.8251 78.117C52.0648 78.5738 52.6304 78.7536 53.0874 78.5139C58.661 75.518 65.695 79.379 66.2646 85.5992H64.6726C63.7624 78.6112 54.5476 76.6751 50.8923 82.652L49.3228 73.0688L49.3308 73.0684ZM51.6794 86.5351C51.6794 83.4493 54.189 80.944 57.2717 80.944C64.6919 81.2511 64.6919 91.8233 57.2717 92.13C54.189 92.13 51.6794 89.6209 51.6794 86.5351ZM62.2119 92.1299C63.5416 90.9577 64.4481 89.3175 64.6803 87.475H67.2574C67.4372 87.475 67.602 87.4226 67.7443 87.3365C67.3548 90.044 65.025 92.1299 62.2119 92.1337L62.2119 92.1299ZM77.4009 92.1299C74.6366 92.1299 72.3329 90.1152 71.8872 87.475H82.9184C82.4727 90.1152 80.169 92.1299 77.4009 92.1299ZM91.3577 85.6026H68.8571C67.8196 85.5727 67.8083 84.056 68.8571 84.0223H70.0819H91.358C92.3955 84.0523 92.4103 85.569 91.3577 85.6026Z" fill="black" fill-opacity="0.2"/>
<path d="M26.9325 33.5687C27.4494 33.5687 27.8689 33.1492 27.8689 32.6324V29.8013C27.8315 28.5655 26.0335 28.5617 25.9961 29.8013V32.6324C25.9961 33.1492 26.4156 33.5687 26.9325 33.5687Z" fill="#416CEA"/>
<path d="M26.9325 33.5687C27.4494 33.5687 27.8689 33.1492 27.8689 32.6324V29.8013C27.8315 28.5655 26.0335 28.5617 25.9961 29.8013V32.6324C25.9961 33.1492 26.4156 33.5687 26.9325 33.5687Z" fill="black" fill-opacity="0.2"/>
<path d="M37.8401 32.6324V29.8013C37.8027 28.5655 36.0047 28.5617 35.9673 29.8013V32.6324C36.0047 33.8683 37.8027 33.872 37.8401 32.6324Z" fill="#416CEA"/>
<path d="M37.8401 32.6324V29.8013C37.8027 28.5655 36.0047 28.5617 35.9673 29.8013V32.6324C36.0047 33.8683 37.8027 33.872 37.8401 32.6324Z" fill="black" fill-opacity="0.2"/>
<path d="M33.6409 34.999V32.108C33.6034 30.8721 31.8055 30.8684 31.7681 32.108V35.7817C31.7681 36.2985 32.1876 36.7179 32.7045 36.7179C33.4124 36.6917 33.9256 37.5043 33.5997 38.1335L33.1165 39.1596C32.6221 40.2868 34.244 41.0657 34.8095 39.961L35.2927 38.9349C36.0381 37.4444 35.2103 35.5084 33.6371 35.0027L33.6409 34.999Z" fill="#416CEA"/>
<path d="M33.6409 34.999V32.108C33.6034 30.8721 31.8055 30.8684 31.7681 32.108V35.7817C31.7681 36.2985 32.1876 36.7179 32.7045 36.7179C33.4124 36.6917 33.9256 37.5043 33.5997 38.1335L33.1165 39.1596C32.6221 40.2868 34.244 41.0657 34.8095 39.961L35.2927 38.9349C36.0381 37.4444 35.2103 35.5084 33.6371 35.0027L33.6409 34.999Z" fill="black" fill-opacity="0.2"/>
<path d="M28.348 27.2117C29.2507 28.0581 30.5204 26.7885 29.6739 25.886C28.2318 24.3843 25.6361 24.3843 24.194 25.886C23.3475 26.7886 24.6173 28.058 25.52 27.2117C26.2654 26.4365 27.6063 26.4365 28.3517 27.2117H28.348Z" fill="#416CEA"/>
<path d="M28.348 27.2117C29.2507 28.0581 30.5204 26.7885 29.6739 25.886C28.2318 24.3843 25.6361 24.3843 24.194 25.886C23.3475 26.7886 24.6173 28.058 25.52 27.2117C26.2654 26.4365 27.6063 26.4365 28.3517 27.2117H28.348Z" fill="black" fill-opacity="0.2"/>
<path d="M32.2398 43.4447C30.4007 43.8716 28.4341 42.5871 28.0821 40.7334C27.7937 39.5313 26.0332 39.8983 26.2504 41.1191C26.7149 43.5571 29.041 45.4295 31.5057 45.3958C31.8765 45.3958 32.2511 45.3583 32.6257 45.2797C33.8281 44.9876 33.461 43.2312 32.2399 43.4484L32.2398 43.4447Z" fill="#416CEA"/>
<path d="M32.2398 43.4447C30.4007 43.8716 28.4341 42.5871 28.0821 40.7334C27.7937 39.5313 26.0332 39.8983 26.2504 41.1191C26.7149 43.5571 29.041 45.4295 31.5057 45.3958C31.8765 45.3958 32.2511 45.3583 32.6257 45.2797C33.8281 44.9876 33.461 43.2312 32.2399 43.4484L32.2398 43.4447Z" fill="black" fill-opacity="0.2"/>
<path d="M35.4864 27.2117C36.2318 26.4366 37.5728 26.4366 38.3181 27.2117C38.5017 27.3953 38.7414 27.4851 38.9811 27.4851C39.7902 27.5039 40.236 26.4553 39.6441 25.886C38.202 24.3843 35.6063 24.3843 34.1642 25.886C33.3177 26.7886 34.5875 28.058 35.4902 27.2117L35.4864 27.2117Z" fill="#416CEA"/>
<path d="M35.4864 27.2117C36.2318 26.4366 37.5728 26.4366 38.3181 27.2117C38.5017 27.3953 38.7414 27.4851 38.9811 27.4851C39.7902 27.5039 40.236 26.4553 39.6441 25.886C38.202 24.3843 35.6063 24.3843 34.1642 25.886C33.3177 26.7886 34.5875 28.058 35.4902 27.2117L35.4864 27.2117Z" fill="black" fill-opacity="0.2"/>
</svg>
