<svg width="94" height="95" viewBox="0 0 94 95" fill="none" xmlns="http://www.w3.org/2000/svg">
<path d="M60.4287 86.5486C60.4287 84.8106 59.0166 83.3984 57.2786 83.3984C53.0984 83.5707 53.1022 89.5263 57.2786 89.6986C59.0166 89.6986 60.4287 88.2866 60.4287 86.5486ZM56.0014 86.5486C56.0014 85.8444 56.5744 85.2713 57.2786 85.2713C58.9716 85.335 58.9716 87.7622 57.2786 87.8259C56.5744 87.8259 56.0014 87.2527 56.0014 86.5486Z" fill="#416CEA"/>
<path d="M60.4287 86.5486C60.4287 84.8106 59.0166 83.3984 57.2786 83.3984C53.0984 83.5707 53.1022 89.5263 57.2786 89.6986C59.0166 89.6986 60.4287 88.2866 60.4287 86.5486ZM56.0014 86.5486C56.0014 85.8444 56.5744 85.2713 57.2786 85.2713C58.9716 85.335 58.9716 87.7622 57.2786 87.8259C56.5744 87.8259 56.0014 87.2527 56.0014 86.5486Z" fill="black" fill-opacity="0.2"/>
<path d="M91.7846 82.2006C93.3578 79.3764 94.1294 76.3574 93.9683 73.5557C93.8335 71.2334 91.9082 69.413 89.5822 69.413H78.5847H52.361L47.5666 60.5321H67.4443L74.8458 67.9335C75.2129 68.3006 75.8047 68.3006 76.1717 67.9335C76.5388 67.5665 76.5388 66.9746 76.1717 66.6076L66.0545 56.4904C65.2267 55.6626 64.1218 55.2056 62.9493 55.2056H38.4411V51.2689L43.9098 44.7777C44.6214 43.935 45.0109 42.8637 45.0109 41.7588V36.3426C50.105 34.687 50.6631 27.0834 45.0109 25.8658V23.2776C48.8802 22.9479 52.0977 20.6294 52.0977 18.0112C52.0977 17.1496 51.7231 15.5353 49.2248 14.3854C47.3033 13.5014 44.5015 13.052 40.8944 13.052C25.7248 13.052 18.095 17.7527 15.1023 20.2698C15.0461 15.1944 15.7315 7.87139 20.5897 4.08091C27.7476 -0.968213 36.932 3.69885 42.0036 7.53444C42.7153 8.05883 43.1423 8.90536 43.1423 9.7931C43.1423 10.31 43.5618 10.7295 44.0787 10.7295C44.5956 10.7295 45.0151 10.31 45.0151 9.7931C45.0151 8.31353 44.3034 6.90522 43.116 6.0287C37.2841 1.59384 27.8371 -2.72863 20.0835 2.16697C16.9709 -0.544863 12.2289 2.36549 13.229 6.36958C10.4535 7.69553 8.3896 9.16762 7.00746 10.3325C5.73396 11.4037 5.12718 13.0968 5.42683 14.7449L6.83524 22.4684V28.1357C4.57284 31.8289 7.79787 36.7544 12.023 36.6458H13.3415V41.1743C13.3415 42.6988 14.0869 44.1334 15.3379 45.0099L26.1062 52.5536C26.8965 53.108 27.8255 53.4002 28.7919 53.4002H34.4703C35.2119 53.4002 35.9311 53.2241 36.5753 52.8982V56.1158C36.5604 56.1607 34.2868 61.9365 34.2755 61.9778L33.3391 64.7908C33.2867 64.7009 32.0694 61.6144 31.9945 61.6669C31.9271 61.5845 31.8409 61.5171 31.7473 61.4609L21.7873 55.7488V52.1717C21.7873 51.6548 21.3678 51.2352 20.8509 51.2352C20.334 51.2352 19.9145 51.6548 19.9145 52.1717V55.8461L16.3674 58.7116C16.1351 58.8988 15.9965 59.1985 16.0265 59.4981L14.5732 60.5207C14.2698 60.7342 14.12 61.1088 14.1949 61.4758L16.8693 74.4362C14.828 74.7021 13.1874 76.2603 12.8615 78.3466L11.7078 85.6843L8.1682 92.1381L2.04407 92.1456L4.8983 74.713C5.4976 71.0573 7.47531 67.8098 10.322 65.8021L12.206 64.4761C13.191 63.7382 12.1685 62.2624 11.1272 62.9441L9.24321 64.2701C5.98453 66.5624 3.72961 70.2594 3.04793 74.4093L0.0139174 92.9274C-0.0872165 93.478 0.37725 94.0286 0.939091 94.0136H8.70388H51.6553C52.2134 94.0248 52.6854 93.478 52.5805 92.9274L52.4719 92.2606C53.7717 93.3544 55.446 94.0136 57.2738 94.0136H62.2068C66.0049 94.0136 69.1513 91.1594 69.612 87.4849H69.9903C70.4548 91.1594 73.5974 94.0136 77.3955 94.0136H82.3285C85.0741 94.0136 87.5912 92.5116 88.8984 90.0994C89.1456 89.6462 88.9771 89.0769 88.5201 88.8297C88.0669 88.5824 87.4976 88.751 87.2504 89.208C86.269 91.0171 84.3849 92.1408 82.3323 92.1408C83.662 90.9684 84.5685 89.3316 84.8007 87.4849H91.3518C94.6293 87.3876 94.9738 82.7954 91.7713 82.1961L91.7846 82.2006ZM85.477 71.2818C85.447 73.076 86.5033 74.7053 88.1589 75.402C88.6234 75.6005 89.1852 75.387 89.3874 74.9039C89.5897 74.4282 89.3649 73.8776 88.8892 73.6753C87.9304 73.2708 87.3236 72.3194 87.3535 71.2781H89.5859C90.9193 71.2781 92.0243 72.3231 92.0992 73.6566C92.2528 76.3498 91.3576 79.4249 89.6308 82.1593H88.1475L86.934 79.2789C86.7879 78.9305 86.447 78.7058 86.0725 78.7058H74.1535C73.7752 78.7058 73.4381 78.9305 73.292 79.2789L72.0784 82.1593H70.5951C69.3028 80.1104 68.4751 77.8705 68.2054 75.7467H70.3554C72.8051 75.7505 74.7865 73.7278 74.7453 71.2819L85.477 71.2818ZM86.1137 82.1632H74.1056L74.7723 80.5826H85.4476L86.1137 82.1632ZM72.8763 71.2818C72.9175 72.6977 71.7751 73.8775 70.3592 73.8737H68.1231C68.0894 72.4653 69.2317 71.2743 70.6439 71.2818H72.8763ZM45.2632 74.8439L43.3379 65.4984C47.5256 69.4051 47.5144 73.9486 48.4395 79.2077L47.5855 77.2299C47.1285 76.1699 46.297 75.3233 45.2632 74.8439ZM37.9629 57.6884C38.7645 58.3439 39.1465 59.3964 38.9293 60.4377L37.9704 65.0074C37.9591 64.9887 37.9254 64.9325 37.9142 64.9175L36.2024 62.1831L37.8505 57.9917L37.9704 57.6921L37.9629 57.6884ZM40.0792 75.1507C40.0792 75.1507 38.6821 68.3711 38.6821 68.3673C39.0004 68.2662 39.2551 67.9928 39.3226 67.6632C39.581 66.4233 40.1354 63.7977 40.3901 62.5765C40.4463 62.6327 40.892 63.071 40.9332 63.1159L43.6151 76.1136C43.7462 76.6755 43.2743 77.2523 42.6974 77.2374H41.2741C40.8321 77.2374 40.4463 76.9227 40.3564 76.4882L40.0792 75.1473L40.0792 75.1507ZM39.4536 18.8122C39.1165 18.6174 38.6933 18.6511 38.3898 18.9021C37.7194 19.4565 35.6368 20.891 34.1048 20.891C32.1271 20.891 30.022 19.9808 28.8759 18.9882C31.805 16.6659 36.9252 14.6095 41.9484 14.9467C43.3492 15.7108 44.0984 16.9169 43.8736 18.0631C43.5702 19.5914 41.7049 20.4228 39.7459 20.7562L39.907 19.7824C39.9706 19.3966 39.7909 19.0145 39.45 18.816L39.4536 18.8122ZM47.1884 30.7235C47.1884 32.263 46.3194 33.6339 45.0085 34.3156V27.7869C46.267 28.169 47.1884 29.3376 47.1884 30.7235ZM50.2224 18.0144C50.2224 19.5052 47.8627 21.2207 44.7126 21.4304L44.4279 20.6813C45.9936 19.2579 46.2221 16.9057 44.9897 15.1864C48.5743 15.6883 50.2224 16.857 50.2224 18.0181L50.2224 18.0144ZM8.70162 23.322H13.335V26.4834C12.0315 25.562 10.065 25.6069 8.70162 26.3748V23.322ZM14.9794 5.59796C14.7396 3.67271 16.9084 2.30553 18.5377 3.34304C17.8934 3.92736 17.4739 4.44797 17.2454 4.76642C16.4738 5.01738 15.7248 5.29831 14.9794 5.59796ZM8.20722 11.7708C9.63059 10.516 12.6608 8.52708 15.6199 7.36213C13.0579 12.4712 13.1215 18.9512 13.2602 21.453H8.54437L7.26339 14.4149C7.0836 13.4261 7.4431 12.4151 8.20722 11.7708ZM12.0166 34.7764C9.78421 34.7764 7.9675 32.9598 7.9675 30.7273C7.9675 29.0381 9.34216 27.6634 11.0314 27.6634C12.3012 27.6634 13.3312 28.6934 13.335 29.9632V34.7763L12.0166 34.7764ZM28.7818 51.5311C28.2012 51.5311 27.6431 51.355 27.1711 51.0217L16.4028 43.4779C15.6537 42.9535 15.2042 42.092 15.2042 41.1781V22.7387C18.0921 19.5174 25.0587 16.6932 30.1456 15.8767C26.5685 17.9106 24.3885 20.4613 23.6244 21.4503H20.3732C19.8563 21.4503 19.4368 21.8698 19.4368 22.3867C19.4368 22.9036 19.8563 23.3231 20.3732 23.3231H24.0964C24.4035 23.3231 24.6957 23.1695 24.868 22.9148C24.8905 22.8848 25.7482 21.6637 27.4 20.1879C29.2728 21.9184 31.8274 22.69 34.0973 22.7649C35.3521 22.7649 36.6631 22.2068 37.6931 21.6225C37.547 22.2143 38.0677 22.8211 38.6744 22.7612C40.3 22.6451 41.7047 22.3005 42.8246 21.7573L43.128 22.5589V41.7625C43.128 42.4255 42.892 43.0661 42.4688 43.5717L36.7791 50.3214L36.6031 50.5311C36.0674 51.1642 35.2846 51.5313 34.4568 51.5313H28.7783L28.7818 51.5311ZM21.5752 63.2247L18.3014 59.554L20.9346 57.4264L29.5534 62.3669L24.2496 66.2137L21.5789 63.2209L21.5752 63.2247ZM17.1066 61.0297L20.0094 64.2847L22.4479 76.1174C22.504 76.3945 22.4366 76.6792 22.2568 76.8964C22.077 77.1137 21.8148 77.2411 21.5302 77.2411H20.1068C19.6648 77.2411 19.279 76.9264 19.1891 76.4919C19.1254 76.1661 16.2825 62.4049 16.1401 61.7078L17.1028 61.0298L17.1066 61.0297ZM10.2894 92.1447L13.4133 86.4513C13.4657 86.3576 13.4995 86.2528 13.5182 86.1479L14.6981 78.6491C14.9004 77.3531 15.9492 76.3942 17.2339 76.2856L17.3537 76.8737C17.6234 78.1735 18.7771 79.1173 20.1068 79.1173H21.5302C22.3767 79.1173 23.1707 78.739 23.7064 78.0835C24.242 77.4243 24.4518 76.574 24.2795 75.7425L22.4928 67.0788L23.4067 68.105C23.5902 68.3111 23.8487 68.4197 24.1071 68.4197C24.2982 68.4197 24.4892 68.3597 24.6578 68.2399L30.8606 63.7414L32.5574 67.8391C32.7072 68.1987 33.0668 68.4309 33.4563 68.4159C33.8459 68.4009 34.1867 68.1462 34.3103 67.7754L35.4152 64.4643L36.2355 65.7753L38.0148 74.409H28.0443C27.5274 74.409 27.1078 74.8285 27.1078 75.3454C27.1078 75.8623 27.5274 76.2818 28.0443 76.2818H38.4012L38.5248 76.8774C38.7945 78.1771 39.9482 79.121 41.2779 79.121H42.7012C43.8886 79.1359 45.0048 78.3269 45.3644 77.1995C45.6715 77.132 49.4809 86.4924 49.6943 86.8449L50.5633 92.1563L10.2894 92.1447ZM49.3344 73.0791C48.3568 67 44.8284 64.3705 40.828 60.3739C40.9628 59.1827 40.6332 58.0065 39.9403 57.0702H62.9459C63.6164 57.0702 64.2494 57.3324 64.7251 57.8081L65.5679 58.6509H45.9932C45.6636 58.6509 45.3564 58.8232 45.1879 59.1078C45.0193 59.3925 45.0118 59.7409 45.1691 60.033L50.9749 70.7869C51.1397 71.0903 51.4544 71.2776 51.799 71.2776H67.0434C65.1893 73.8808 66.7849 79.3008 68.4367 82.1965C68.0771 82.2527 67.74 82.3838 67.4403 82.571C65.2567 76.7053 57.9077 73.7913 52.2257 76.8664C51.7687 77.1062 51.5889 77.6717 51.8286 78.1287C52.0684 78.5857 52.6339 78.7655 53.0909 78.5257C58.6645 75.5292 65.7022 79.391 66.268 85.6125H64.676C63.7658 78.6231 54.5511 76.6866 50.8958 82.6647L49.3264 73.0796L49.3344 73.0791ZM51.6829 86.5486C51.6829 83.4622 54.1925 80.9564 57.2789 80.9564C64.699 81.2635 64.699 91.8378 57.2789 92.1447C54.1924 92.1447 51.6866 89.6351 51.6866 86.5487L51.6829 86.5486ZM62.2153 92.1446C63.545 90.9722 64.4515 89.3316 64.6837 87.4887H67.2607C67.4405 87.4887 67.6053 87.4363 67.7476 87.3501C67.3581 90.0582 65.0283 92.1446 62.2153 92.1483L62.2153 92.1446ZM77.4041 92.1446C74.6398 92.1446 72.3362 90.1294 71.8905 87.4887H82.9216C82.4758 90.1294 80.1721 92.1446 77.4041 92.1446ZM91.3607 85.6159H68.8604C67.8229 85.5859 67.8116 84.0689 68.8604 84.0353H70.0852H91.361C92.3985 84.0652 92.4133 85.5822 91.3607 85.6159Z" fill="#416CEA"/>
<path d="M91.7846 82.2006C93.3578 79.3764 94.1294 76.3574 93.9683 73.5557C93.8335 71.2334 91.9082 69.413 89.5822 69.413H78.5847H52.361L47.5666 60.5321H67.4443L74.8458 67.9335C75.2129 68.3006 75.8047 68.3006 76.1717 67.9335C76.5388 67.5665 76.5388 66.9746 76.1717 66.6076L66.0545 56.4904C65.2267 55.6626 64.1218 55.2056 62.9493 55.2056H38.4411V51.2689L43.9098 44.7777C44.6214 43.935 45.0109 42.8637 45.0109 41.7588V36.3426C50.105 34.687 50.6631 27.0834 45.0109 25.8658V23.2776C48.8802 22.9479 52.0977 20.6294 52.0977 18.0112C52.0977 17.1496 51.7231 15.5353 49.2248 14.3854C47.3033 13.5014 44.5015 13.052 40.8944 13.052C25.7248 13.052 18.095 17.7527 15.1023 20.2698C15.0461 15.1944 15.7315 7.87139 20.5897 4.08091C27.7476 -0.968213 36.932 3.69885 42.0036 7.53444C42.7153 8.05883 43.1423 8.90536 43.1423 9.7931C43.1423 10.31 43.5618 10.7295 44.0787 10.7295C44.5956 10.7295 45.0151 10.31 45.0151 9.7931C45.0151 8.31353 44.3034 6.90522 43.116 6.0287C37.2841 1.59384 27.8371 -2.72863 20.0835 2.16697C16.9709 -0.544863 12.2289 2.36549 13.229 6.36958C10.4535 7.69553 8.3896 9.16762 7.00746 10.3325C5.73396 11.4037 5.12718 13.0968 5.42683 14.7449L6.83524 22.4684V28.1357C4.57284 31.8289 7.79787 36.7544 12.023 36.6458H13.3415V41.1743C13.3415 42.6988 14.0869 44.1334 15.3379 45.0099L26.1062 52.5536C26.8965 53.108 27.8255 53.4002 28.7919 53.4002H34.4703C35.2119 53.4002 35.9311 53.2241 36.5753 52.8982V56.1158C36.5604 56.1607 34.2868 61.9365 34.2755 61.9778L33.3391 64.7908C33.2867 64.7009 32.0694 61.6144 31.9945 61.6669C31.9271 61.5845 31.8409 61.5171 31.7473 61.4609L21.7873 55.7488V52.1717C21.7873 51.6548 21.3678 51.2352 20.8509 51.2352C20.334 51.2352 19.9145 51.6548 19.9145 52.1717V55.8461L16.3674 58.7116C16.1351 58.8988 15.9965 59.1985 16.0265 59.4981L14.5732 60.5207C14.2698 60.7342 14.12 61.1088 14.1949 61.4758L16.8693 74.4362C14.828 74.7021 13.1874 76.2603 12.8615 78.3466L11.7078 85.6843L8.1682 92.1381L2.04407 92.1456L4.8983 74.713C5.4976 71.0573 7.47531 67.8098 10.322 65.8021L12.206 64.4761C13.191 63.7382 12.1685 62.2624 11.1272 62.9441L9.24321 64.2701C5.98453 66.5624 3.72961 70.2594 3.04793 74.4093L0.0139174 92.9274C-0.0872165 93.478 0.37725 94.0286 0.939091 94.0136H8.70388H51.6553C52.2134 94.0248 52.6854 93.478 52.5805 92.9274L52.4719 92.2606C53.7717 93.3544 55.446 94.0136 57.2738 94.0136H62.2068C66.0049 94.0136 69.1513 91.1594 69.612 87.4849H69.9903C70.4548 91.1594 73.5974 94.0136 77.3955 94.0136H82.3285C85.0741 94.0136 87.5912 92.5116 88.8984 90.0994C89.1456 89.6462 88.9771 89.0769 88.5201 88.8297C88.0669 88.5824 87.4976 88.751 87.2504 89.208C86.269 91.0171 84.3849 92.1408 82.3323 92.1408C83.662 90.9684 84.5685 89.3316 84.8007 87.4849H91.3518C94.6293 87.3876 94.9738 82.7954 91.7713 82.1961L91.7846 82.2006ZM85.477 71.2818C85.447 73.076 86.5033 74.7053 88.1589 75.402C88.6234 75.6005 89.1852 75.387 89.3874 74.9039C89.5897 74.4282 89.3649 73.8776 88.8892 73.6753C87.9304 73.2708 87.3236 72.3194 87.3535 71.2781H89.5859C90.9193 71.2781 92.0243 72.3231 92.0992 73.6566C92.2528 76.3498 91.3576 79.4249 89.6308 82.1593H88.1475L86.934 79.2789C86.7879 78.9305 86.447 78.7058 86.0725 78.7058H74.1535C73.7752 78.7058 73.4381 78.9305 73.292 79.2789L72.0784 82.1593H70.5951C69.3028 80.1104 68.4751 77.8705 68.2054 75.7467H70.3554C72.8051 75.7505 74.7865 73.7278 74.7453 71.2819L85.477 71.2818ZM86.1137 82.1632H74.1056L74.7723 80.5826H85.4476L86.1137 82.1632ZM72.8763 71.2818C72.9175 72.6977 71.7751 73.8775 70.3592 73.8737H68.1231C68.0894 72.4653 69.2317 71.2743 70.6439 71.2818H72.8763ZM45.2632 74.8439L43.3379 65.4984C47.5256 69.4051 47.5144 73.9486 48.4395 79.2077L47.5855 77.2299C47.1285 76.1699 46.297 75.3233 45.2632 74.8439ZM37.9629 57.6884C38.7645 58.3439 39.1465 59.3964 38.9293 60.4377L37.9704 65.0074C37.9591 64.9887 37.9254 64.9325 37.9142 64.9175L36.2024 62.1831L37.8505 57.9917L37.9704 57.6921L37.9629 57.6884ZM40.0792 75.1507C40.0792 75.1507 38.6821 68.3711 38.6821 68.3673C39.0004 68.2662 39.2551 67.9928 39.3226 67.6632C39.581 66.4233 40.1354 63.7977 40.3901 62.5765C40.4463 62.6327 40.892 63.071 40.9332 63.1159L43.6151 76.1136C43.7462 76.6755 43.2743 77.2523 42.6974 77.2374H41.2741C40.8321 77.2374 40.4463 76.9227 40.3564 76.4882L40.0792 75.1473L40.0792 75.1507ZM39.4536 18.8122C39.1165 18.6174 38.6933 18.6511 38.3898 18.9021C37.7194 19.4565 35.6368 20.891 34.1048 20.891C32.1271 20.891 30.022 19.9808 28.8759 18.9882C31.805 16.6659 36.9252 14.6095 41.9484 14.9467C43.3492 15.7108 44.0984 16.9169 43.8736 18.0631C43.5702 19.5914 41.7049 20.4228 39.7459 20.7562L39.907 19.7824C39.9706 19.3966 39.7909 19.0145 39.45 18.816L39.4536 18.8122ZM47.1884 30.7235C47.1884 32.263 46.3194 33.6339 45.0085 34.3156V27.7869C46.267 28.169 47.1884 29.3376 47.1884 30.7235ZM50.2224 18.0144C50.2224 19.5052 47.8627 21.2207 44.7126 21.4304L44.4279 20.6813C45.9936 19.2579 46.2221 16.9057 44.9897 15.1864C48.5743 15.6883 50.2224 16.857 50.2224 18.0181L50.2224 18.0144ZM8.70162 23.322H13.335V26.4834C12.0315 25.562 10.065 25.6069 8.70162 26.3748V23.322ZM14.9794 5.59796C14.7396 3.67271 16.9084 2.30553 18.5377 3.34304C17.8934 3.92736 17.4739 4.44797 17.2454 4.76642C16.4738 5.01738 15.7248 5.29831 14.9794 5.59796ZM8.20722 11.7708C9.63059 10.516 12.6608 8.52708 15.6199 7.36213C13.0579 12.4712 13.1215 18.9512 13.2602 21.453H8.54437L7.26339 14.4149C7.0836 13.4261 7.4431 12.4151 8.20722 11.7708ZM12.0166 34.7764C9.78421 34.7764 7.9675 32.9598 7.9675 30.7273C7.9675 29.0381 9.34216 27.6634 11.0314 27.6634C12.3012 27.6634 13.3312 28.6934 13.335 29.9632V34.7763L12.0166 34.7764ZM28.7818 51.5311C28.2012 51.5311 27.6431 51.355 27.1711 51.0217L16.4028 43.4779C15.6537 42.9535 15.2042 42.092 15.2042 41.1781V22.7387C18.0921 19.5174 25.0587 16.6932 30.1456 15.8767C26.5685 17.9106 24.3885 20.4613 23.6244 21.4503H20.3732C19.8563 21.4503 19.4368 21.8698 19.4368 22.3867C19.4368 22.9036 19.8563 23.3231 20.3732 23.3231H24.0964C24.4035 23.3231 24.6957 23.1695 24.868 22.9148C24.8905 22.8848 25.7482 21.6637 27.4 20.1879C29.2728 21.9184 31.8274 22.69 34.0973 22.7649C35.3521 22.7649 36.6631 22.2068 37.6931 21.6225C37.547 22.2143 38.0677 22.8211 38.6744 22.7612C40.3 22.6451 41.7047 22.3005 42.8246 21.7573L43.128 22.5589V41.7625C43.128 42.4255 42.892 43.0661 42.4688 43.5717L36.7791 50.3214L36.6031 50.5311C36.0674 51.1642 35.2846 51.5313 34.4568 51.5313H28.7783L28.7818 51.5311ZM21.5752 63.2247L18.3014 59.554L20.9346 57.4264L29.5534 62.3669L24.2496 66.2137L21.5789 63.2209L21.5752 63.2247ZM17.1066 61.0297L20.0094 64.2847L22.4479 76.1174C22.504 76.3945 22.4366 76.6792 22.2568 76.8964C22.077 77.1137 21.8148 77.2411 21.5302 77.2411H20.1068C19.6648 77.2411 19.279 76.9264 19.1891 76.4919C19.1254 76.1661 16.2825 62.4049 16.1401 61.7078L17.1028 61.0298L17.1066 61.0297ZM10.2894 92.1447L13.4133 86.4513C13.4657 86.3576 13.4995 86.2528 13.5182 86.1479L14.6981 78.6491C14.9004 77.3531 15.9492 76.3942 17.2339 76.2856L17.3537 76.8737C17.6234 78.1735 18.7771 79.1173 20.1068 79.1173H21.5302C22.3767 79.1173 23.1707 78.739 23.7064 78.0835C24.242 77.4243 24.4518 76.574 24.2795 75.7425L22.4928 67.0788L23.4067 68.105C23.5902 68.3111 23.8487 68.4197 24.1071 68.4197C24.2982 68.4197 24.4892 68.3597 24.6578 68.2399L30.8606 63.7414L32.5574 67.8391C32.7072 68.1987 33.0668 68.4309 33.4563 68.4159C33.8459 68.4009 34.1867 68.1462 34.3103 67.7754L35.4152 64.4643L36.2355 65.7753L38.0148 74.409H28.0443C27.5274 74.409 27.1078 74.8285 27.1078 75.3454C27.1078 75.8623 27.5274 76.2818 28.0443 76.2818H38.4012L38.5248 76.8774C38.7945 78.1771 39.9482 79.121 41.2779 79.121H42.7012C43.8886 79.1359 45.0048 78.3269 45.3644 77.1995C45.6715 77.132 49.4809 86.4924 49.6943 86.8449L50.5633 92.1563L10.2894 92.1447ZM49.3344 73.0791C48.3568 67 44.8284 64.3705 40.828 60.3739C40.9628 59.1827 40.6332 58.0065 39.9403 57.0702H62.9459C63.6164 57.0702 64.2494 57.3324 64.7251 57.8081L65.5679 58.6509H45.9932C45.6636 58.6509 45.3564 58.8232 45.1879 59.1078C45.0193 59.3925 45.0118 59.7409 45.1691 60.033L50.9749 70.7869C51.1397 71.0903 51.4544 71.2776 51.799 71.2776H67.0434C65.1893 73.8808 66.7849 79.3008 68.4367 82.1965C68.0771 82.2527 67.74 82.3838 67.4403 82.571C65.2567 76.7053 57.9077 73.7913 52.2257 76.8664C51.7687 77.1062 51.5889 77.6717 51.8286 78.1287C52.0684 78.5857 52.6339 78.7655 53.0909 78.5257C58.6645 75.5292 65.7022 79.391 66.268 85.6125H64.676C63.7658 78.6231 54.5511 76.6866 50.8958 82.6647L49.3264 73.0796L49.3344 73.0791ZM51.6829 86.5486C51.6829 83.4622 54.1925 80.9564 57.2789 80.9564C64.699 81.2635 64.699 91.8378 57.2789 92.1447C54.1924 92.1447 51.6866 89.6351 51.6866 86.5487L51.6829 86.5486ZM62.2153 92.1446C63.545 90.9722 64.4515 89.3316 64.6837 87.4887H67.2607C67.4405 87.4887 67.6053 87.4363 67.7476 87.3501C67.3581 90.0582 65.0283 92.1446 62.2153 92.1483L62.2153 92.1446ZM77.4041 92.1446C74.6398 92.1446 72.3362 90.1294 71.8905 87.4887H82.9216C82.4758 90.1294 80.1721 92.1446 77.4041 92.1446ZM91.3607 85.6159H68.8604C67.8229 85.5859 67.8116 84.0689 68.8604 84.0353H70.0852H91.361C92.3985 84.0652 92.4133 85.5822 91.3607 85.6159Z" fill="black" fill-opacity="0.2"/>
<path d="M26.9359 33.5716C27.4528 33.5716 27.8723 33.1521 27.8723 32.6352V29.8035C27.8349 28.5674 26.0369 28.5636 25.9995 29.8035V32.6352C25.9995 33.1521 26.419 33.5716 26.9359 33.5716Z" fill="#416CEA"/>
<path d="M26.9359 33.5716C27.4528 33.5716 27.8723 33.1521 27.8723 32.6352V29.8035C27.8349 28.5674 26.0369 28.5636 25.9995 29.8035V32.6352C25.9995 33.1521 26.419 33.5716 26.9359 33.5716Z" fill="black" fill-opacity="0.2"/>
<path d="M37.8433 32.6352V29.8035C37.8058 28.5674 36.0079 28.5636 35.9705 29.8035V32.6352C36.0079 33.8713 37.8059 33.875 37.8433 32.6352Z" fill="#416CEA"/>
<path d="M37.8433 32.6352V29.8035C37.8058 28.5674 36.0079 28.5636 35.9705 29.8035V32.6352C36.0079 33.8713 37.8059 33.875 37.8433 32.6352Z" fill="black" fill-opacity="0.2"/>
<path d="M33.6444 34.9998V32.1082C33.6069 30.8721 31.809 30.8683 31.7716 32.1082V35.7826C31.7716 36.2995 32.1911 36.719 32.708 36.719C33.4159 36.6928 33.929 37.5056 33.6032 38.1349L33.12 39.1612C32.6256 40.2887 34.2475 41.0678 34.813 39.9628L35.2962 38.9365C36.0416 37.4457 35.2138 35.5092 33.6406 35.0035L33.6444 34.9998Z" fill="#416CEA"/>
<path d="M33.6444 34.9998V32.1082C33.6069 30.8721 31.809 30.8683 31.7716 32.1082V35.7826C31.7716 36.2995 32.1911 36.719 32.708 36.719C33.4159 36.6928 33.929 37.5056 33.6032 38.1349L33.12 39.1612C32.6256 40.2887 34.2475 41.0678 34.813 39.9628L35.2962 38.9365C36.0416 37.4457 35.2138 35.5092 33.6406 35.0035L33.6444 34.9998Z" fill="black" fill-opacity="0.2"/>
<path d="M28.3512 27.2103C29.2539 28.0568 30.5236 26.787 29.6771 25.8843C28.2351 24.3823 25.6394 24.3823 24.1973 25.8843C23.3508 26.787 24.6206 28.0568 25.5232 27.2103C26.2686 26.4349 27.6096 26.4349 28.3549 27.2103H28.3512Z" fill="#416CEA"/>
<path d="M28.3512 27.2103C29.2539 28.0568 30.5236 26.787 29.6771 25.8843C28.2351 24.3823 25.6394 24.3823 24.1973 25.8843C23.3508 26.787 24.6206 28.0568 25.5232 27.2103C26.2686 26.4349 27.6096 26.4349 28.3549 27.2103H28.3512Z" fill="black" fill-opacity="0.2"/>
<path d="M32.2433 43.4454C30.4042 43.8724 28.4377 42.5877 28.0857 40.7336C27.7973 39.5312 26.0368 39.8983 26.254 41.1194C26.7185 43.5578 29.0446 45.4306 31.5092 45.3969C31.88 45.3969 32.2546 45.3594 32.6292 45.2808C33.8315 44.9886 33.4645 43.2319 32.2434 43.4491L32.2433 43.4454Z" fill="#416CEA"/>
<path d="M32.2433 43.4454C30.4042 43.8724 28.4377 42.5877 28.0857 40.7336C27.7973 39.5312 26.0368 39.8983 26.254 41.1194C26.7185 43.5578 29.0446 45.4306 31.5092 45.3969C31.88 45.3969 32.2546 45.3594 32.6292 45.2808C33.8315 44.9886 33.4645 43.2319 32.2434 43.4491L32.2433 43.4454Z" fill="black" fill-opacity="0.2"/>
<path d="M35.4899 27.2103C36.2353 26.435 37.5763 26.435 38.3216 27.2103C38.5052 27.3938 38.7449 27.4837 38.9846 27.4837C39.7937 27.5025 40.2394 26.4537 39.6476 25.8843C38.2055 24.3823 35.6098 24.3823 34.1677 25.8843C33.3212 26.787 34.591 28.0568 35.4937 27.2103L35.4899 27.2103Z" fill="#416CEA"/>
<path d="M35.4899 27.2103C36.2353 26.435 37.5763 26.435 38.3216 27.2103C38.5052 27.3938 38.7449 27.4837 38.9846 27.4837C39.7937 27.5025 40.2394 26.4537 39.6476 25.8843C38.2055 24.3823 35.6098 24.3823 34.1677 25.8843C33.3212 26.787 34.591 28.0568 35.4937 27.2103L35.4899 27.2103Z" fill="black" fill-opacity="0.2"/>
<path d="M59.8784 51.5825H86.057C88.6378 51.5825 90.7391 49.4812 90.7391 46.9005V13.6731C90.7391 11.0923 88.6378 8.99102 86.057 8.99102H84.2966C84.2854 6.44018 82.2065 4.36515 79.6519 4.36515H78.1874C77.0338 -1.42567 68.9019 -1.42193 67.7518 4.36515H66.2873C63.7328 4.36515 61.654 6.43654 61.6427 8.99102H59.8823C57.3015 8.99102 55.2002 11.0923 55.2002 13.6731V46.9005C55.2002 49.4812 57.3015 51.5825 59.8823 51.5825H59.8784ZM57.0692 13.6729C57.0692 12.1222 58.3277 10.8636 59.8784 10.8636H79.2547C79.7716 10.8636 80.1911 10.4441 80.1911 9.92722C80.1911 9.41032 79.7716 8.99081 79.2547 8.99081H63.5116C63.5229 7.47011 64.7627 6.23774 66.2834 6.23774H68.602C69.1189 6.23774 69.5384 5.81823 69.5384 5.30133C69.5384 3.40973 71.0779 1.87407 72.9657 1.87407C74.8573 1.87407 76.3929 3.41357 76.3929 5.30133C76.3929 5.81823 76.8124 6.23774 77.3293 6.23774H79.6479C81.1762 6.23774 82.4197 7.48132 82.4197 9.0095V9.92344C82.4197 10.4403 82.8392 10.8599 83.3561 10.8599H86.053C87.6037 10.8599 88.8622 12.1184 88.8622 13.6691V46.8965C88.8622 48.4472 87.6037 49.7057 86.053 49.7057H59.8744C58.3237 49.7057 57.0651 48.4472 57.0651 46.8965L57.0692 13.6729Z" fill="#416CEA"/>
<path d="M59.8784 51.5825H86.057C88.6378 51.5825 90.7391 49.4812 90.7391 46.9005V13.6731C90.7391 11.0923 88.6378 8.99102 86.057 8.99102H84.2966C84.2854 6.44018 82.2065 4.36515 79.6519 4.36515H78.1874C77.0338 -1.42567 68.9019 -1.42193 67.7518 4.36515H66.2873C63.7328 4.36515 61.654 6.43654 61.6427 8.99102H59.8823C57.3015 8.99102 55.2002 11.0923 55.2002 13.6731V46.9005C55.2002 49.4812 57.3015 51.5825 59.8823 51.5825H59.8784ZM57.0692 13.6729C57.0692 12.1222 58.3277 10.8636 59.8784 10.8636H79.2547C79.7716 10.8636 80.1911 10.4441 80.1911 9.92722C80.1911 9.41032 79.7716 8.99081 79.2547 8.99081H63.5116C63.5229 7.47011 64.7627 6.23774 66.2834 6.23774H68.602C69.1189 6.23774 69.5384 5.81823 69.5384 5.30133C69.5384 3.40973 71.0779 1.87407 72.9657 1.87407C74.8573 1.87407 76.3929 3.41357 76.3929 5.30133C76.3929 5.81823 76.8124 6.23774 77.3293 6.23774H79.6479C81.1762 6.23774 82.4197 7.48132 82.4197 9.0095V9.92344C82.4197 10.4403 82.8392 10.8599 83.3561 10.8599H86.053C87.6037 10.8599 88.8622 12.1184 88.8622 13.6691V46.8965C88.8622 48.4472 87.6037 49.7057 86.053 49.7057H59.8744C58.3237 49.7057 57.0651 48.4472 57.0651 46.8965L57.0692 13.6729Z" fill="black" fill-opacity="0.2"/>
<path d="M61.1108 23.0179H67.9317C68.4486 23.0179 68.8681 22.5984 68.8681 22.0815V15.2606C68.8681 14.7437 68.4486 14.3242 67.9317 14.3242H61.1108C60.594 14.3242 60.1744 14.7437 60.1744 15.2606V22.0815C60.1744 22.5984 60.594 23.0179 61.1108 23.0179ZM62.0473 16.2008H66.9953V21.1488H62.0473V16.2008Z" fill="#416CEA"/>
<path d="M61.1108 23.0179H67.9317C68.4486 23.0179 68.8681 22.5984 68.8681 22.0815V15.2606C68.8681 14.7437 68.4486 14.3242 67.9317 14.3242H61.1108C60.594 14.3242 60.1744 14.7437 60.1744 15.2606V22.0815C60.1744 22.5984 60.594 23.0179 61.1108 23.0179ZM62.0473 16.2008H66.9953V21.1488H62.0473V16.2008Z" fill="black" fill-opacity="0.2"/>
<path d="M61.1108 34.6351H67.9317C68.4486 34.6351 68.8681 34.2156 68.8681 33.6987V26.8778C68.8681 26.3609 68.4486 25.9414 67.9317 25.9414H61.1108C60.594 25.9414 60.1744 26.3609 60.1744 26.8778V33.6987C60.1744 34.2156 60.594 34.6351 61.1108 34.6351ZM62.0473 27.8142H66.9953V32.7623H62.0473V27.8142Z" fill="#416CEA"/>
<path d="M61.1108 34.6351H67.9317C68.4486 34.6351 68.8681 34.2156 68.8681 33.6987V26.8778C68.8681 26.3609 68.4486 25.9414 67.9317 25.9414H61.1108C60.594 25.9414 60.1744 26.3609 60.1744 26.8778V33.6987C60.1744 34.2156 60.594 34.6351 61.1108 34.6351ZM62.0473 27.8142H66.9953V32.7623H62.0473V27.8142Z" fill="black" fill-opacity="0.2"/>
<path d="M61.1108 46.2445H67.9317C68.4486 46.2445 68.8681 45.8249 68.8681 45.308V38.4872C68.8681 37.9703 68.4486 37.5508 67.9317 37.5508H61.1108C60.594 37.5508 60.1744 37.9703 60.1744 38.4872V45.308C60.1744 45.8249 60.594 46.2445 61.1108 46.2445ZM62.0473 39.4236H66.9953V44.3717H62.0473V39.4236Z" fill="#416CEA"/>
<path d="M61.1108 46.2445H67.9317C68.4486 46.2445 68.8681 45.8249 68.8681 45.308V38.4872C68.8681 37.9703 68.4486 37.5508 67.9317 37.5508H61.1108C60.594 37.5508 60.1744 37.9703 60.1744 38.4872V45.308C60.1744 45.8249 60.594 46.2445 61.1108 46.2445ZM62.0473 39.4236H66.9953V44.3717H62.0473V39.4236Z" fill="black" fill-opacity="0.2"/>
<path d="M75.0672 21.5599H82.3038C86.027 21.4063 86.0307 16.095 82.3038 15.9414H75.0672C71.344 16.095 71.3402 21.4063 75.0672 21.5599ZM75.0672 17.8143H82.3038C83.5399 17.8593 83.5436 19.6421 82.3038 19.6871H75.0672C73.8311 19.6422 73.8273 17.8593 75.0672 17.8143Z" fill="#416CEA"/>
<path d="M75.0672 21.5599H82.3038C86.027 21.4063 86.0307 16.095 82.3038 15.9414H75.0672C71.344 16.095 71.3402 21.4063 75.0672 21.5599ZM75.0672 17.8143H82.3038C83.5399 17.8593 83.5436 19.6421 82.3038 19.6871H75.0672C73.8311 19.6422 73.8273 17.8593 75.0672 17.8143Z" fill="black" fill-opacity="0.2"/>
<path d="M75.0672 33.0951H82.3038C86.027 32.9415 86.0307 27.6302 82.3038 27.4766H75.0672C71.344 27.6301 71.3402 32.9415 75.0672 33.0951ZM75.0672 29.3495H82.3038C83.5399 29.3944 83.5436 31.1773 82.3038 31.2223H75.0672C73.8311 31.1773 73.8273 29.3944 75.0672 29.3495Z" fill="#416CEA"/>
<path d="M75.0672 33.0951H82.3038C86.027 32.9415 86.0307 27.6302 82.3038 27.4766H75.0672C71.344 27.6301 71.3402 32.9415 75.0672 33.0951ZM75.0672 29.3495H82.3038C83.5399 29.3944 83.5436 31.1773 82.3038 31.2223H75.0672C73.8311 31.1773 73.8273 29.3944 75.0672 29.3495Z" fill="black" fill-opacity="0.2"/>
<path d="M75.0672 44.6341H82.3038C86.027 44.4806 86.0307 39.1692 82.3038 39.0156H75.0672C71.344 39.1692 71.3402 44.4805 75.0672 44.6341ZM75.0672 40.8885H82.3038C83.5399 40.9335 83.5436 42.7164 82.3038 42.7613H75.0672C73.8311 42.7164 73.8273 40.9335 75.0672 40.8885Z" fill="#416CEA"/>
<path d="M75.0672 44.6341H82.3038C86.027 44.4806 86.0307 39.1692 82.3038 39.0156H75.0672C71.344 39.1692 71.3402 44.4805 75.0672 44.6341ZM75.0672 40.8885H82.3038C83.5399 40.9335 83.5436 42.7164 82.3038 42.7613H75.0672C73.8311 42.7164 73.8273 40.9335 75.0672 40.8885Z" fill="black" fill-opacity="0.2"/>
</svg>
