<svg width="32" height="30" viewBox="0 0 32 30" fill="none" xmlns="http://www.w3.org/2000/svg">
<path d="M29.1503 21.2102C29.0881 21.324 29.043 21.4035 28.9979 21.4829C27.7385 23.7825 25.7985 25.6362 23.444 26.7896C21.0895 27.943 18.4358 28.3397 15.8469 27.9253C10.8133 27.1457 6.59578 23.1816 5.4877 18.2038C5.41898 17.8967 5.43831 17.7314 5.74324 17.5381C6.20295 17.2428 6.57997 16.8353 6.83884 16.3542C7.09772 15.873 7.22994 15.3339 7.22307 14.7875C7.2162 14.2411 7.07046 13.7055 6.79956 13.231C6.52866 12.7565 6.14151 12.3587 5.67453 12.075C5.60796 12.0342 5.53924 11.944 5.45978 11.9913C5.38033 12.0385 5.42328 12.1437 5.42328 12.221C5.42328 12.8653 5.42328 13.4923 5.42328 14.128C5.43252 14.1984 5.42073 14.2701 5.3894 14.3339C5.35808 14.3977 5.3086 14.4508 5.24718 14.4866C4.87783 14.7207 4.51706 14.9676 4.16058 15.221C4.11567 15.2628 4.05659 15.2861 3.99523 15.2861C3.93387 15.2861 3.87478 15.2628 3.82987 15.221C3.50132 14.9848 3.16632 14.7529 2.82273 14.5403C2.73642 14.4968 2.66536 14.4282 2.61896 14.3434C2.57255 14.2587 2.553 14.1618 2.56288 14.0657C2.58006 13.3721 2.56288 12.6784 2.56288 11.9913C2.43619 11.9612 2.37606 12.0321 2.30949 12.0729C1.85238 12.3508 1.4717 12.7382 1.20182 13.2002C0.931934 13.6621 0.781351 14.1839 0.763663 14.7186C0.745975 15.2533 0.861739 15.784 1.1005 16.2627C1.33927 16.7415 1.69351 17.1532 2.13125 17.4608C2.2823 17.558 2.41006 17.6872 2.50545 17.8394C2.60084 17.9916 2.66151 18.1629 2.68314 18.3412C4.021 25.7155 11.2106 30.7964 18.6214 29.5208C23.4832 28.6919 26.9621 25.9539 29.1095 21.5152C29.1525 21.4378 29.2298 21.3584 29.1503 21.2102Z" fill="#FDFDFE"/>
<path d="M32 15.9791C31.908 16.1627 31.836 16.3556 31.7852 16.5546C31.5196 17.2166 31.0494 17.7764 30.4431 18.1523C30.2627 18.2639 30.1768 18.2854 30.1811 18.017C30.1961 17.3727 30.1811 16.7457 30.1811 16.1101C30.1906 16.0283 30.1752 15.9456 30.1369 15.8728C30.0986 15.8 30.0391 15.7405 29.9664 15.702C29.6142 15.4873 29.2706 15.2468 28.9334 15.0041C28.885 14.9591 28.8213 14.9341 28.7552 14.9341C28.6891 14.9341 28.6254 14.9591 28.577 15.0041C28.2291 15.2532 27.8769 15.4937 27.5161 15.7214C27.4537 15.7565 27.4031 15.8092 27.3706 15.8731C27.3381 15.9369 27.3253 16.0089 27.3336 16.08C27.3336 16.7242 27.3336 17.3513 27.3336 17.9869C27.3336 18.0642 27.3787 18.1695 27.3014 18.2167C27.2241 18.2639 27.1296 18.1759 27.0544 18.1286C26.5841 17.8365 26.1967 17.4285 25.9292 16.9438C25.6617 16.459 25.5232 15.9137 25.5269 15.36C25.5305 14.8064 25.6763 14.263 25.9501 13.7818C26.224 13.3006 26.6168 12.8978 27.0909 12.6119C27.2756 12.5002 27.3529 12.4186 27.2928 12.1824C26.0043 7.0994 22.8777 3.75583 17.7861 2.51891C11.93 1.08442 6.21138 3.87179 3.47339 9.26616C3.44547 9.31985 3.41756 9.37568 3.37676 9.45084C3.31448 9.33059 3.39394 9.25543 3.424 9.18671C5.57788 4.4108 9.18129 1.47096 14.3609 0.678551C17.9278 0.142058 21.5636 1.01241 24.5009 3.10589C27.4381 5.19938 29.4471 8.35221 30.1038 11.8989C30.119 12.0741 30.1754 12.2432 30.2683 12.3925C30.3612 12.5417 30.488 12.6669 30.6385 12.7579C31.2993 13.1925 31.7622 13.8699 31.927 14.6434C31.9399 14.697 31.9141 14.7722 31.9957 14.798L32 15.9791Z" fill="#0238FE"/>
<path d="M10.1434 12.9941C9.63656 12.9791 9.1813 13.0284 8.73464 12.9318C8.33306 12.8459 8.24502 12.6376 8.47694 12.2876C8.57693 12.1599 8.70337 12.0554 8.84757 11.9813C8.99177 11.9072 9.15031 11.8651 9.3123 11.8581C9.65226 11.8031 9.99756 11.7886 10.3409 11.8151C10.4115 11.8278 10.4842 11.8143 10.5455 11.7771C10.6068 11.74 10.6524 11.6817 10.6738 11.6133C11.013 10.9212 11.4255 10.2675 11.9043 9.6634C11.9579 9.59254 11.9902 9.48946 12.1061 9.48731C12.8405 9.48731 13.5084 9.13299 14.2342 9.075C16.0767 8.93113 17.9149 8.86026 19.7317 9.30908C20.0302 9.37994 20.3093 9.53885 20.6357 9.48731C20.7646 9.46584 20.8097 9.57965 20.8698 9.65911C21.3437 10.2571 21.7505 10.9052 22.0831 11.5918C22.1107 11.6739 22.1676 11.7429 22.2429 11.7856C22.3181 11.8284 22.4065 11.842 22.4911 11.8237C22.918 11.788 23.3479 11.825 23.7624 11.9332C23.8961 11.9605 24.021 12.02 24.1266 12.1064C24.2321 12.1928 24.3149 12.3037 24.368 12.4293C24.4861 12.7321 24.4281 12.8459 24.1103 12.9211C23.7204 12.994 23.3229 13.0178 22.9271 12.9919H22.7123C22.6651 13.1015 22.7639 13.1401 22.8111 13.2067C23.2406 13.712 23.6794 14.2131 24.1275 14.7099C24.1733 14.7581 24.2089 14.8152 24.2322 14.8775C24.2554 14.9399 24.2658 15.0063 24.2628 15.0728C24.2628 16.9583 24.2628 18.8437 24.2628 20.7292C24.2628 20.9568 24.1855 21.0513 23.9557 21.0491C23.4253 21.0491 22.8927 21.0491 22.3623 21.0491C22.1475 21.0491 22.0445 20.9654 22.0488 20.7335C22.0531 20.5015 22.1454 20.246 22.0101 20.1021C21.8748 19.9582 21.6171 20.1021 21.4088 20.0871C21.032 20.0927 20.6638 19.9742 20.3609 19.7499C20.3333 19.7223 20.2988 19.7027 20.261 19.6933C20.2231 19.6838 20.1834 19.6848 20.1461 19.6962C19.4757 19.8907 18.7805 19.9869 18.0824 19.9819C16.5531 20.0779 15.0183 20.0405 13.4955 19.8702C12.9436 19.795 12.4218 19.6361 11.8871 20.0012C11.6466 20.1665 11.2987 20.1021 10.998 20.0678C10.8219 20.0484 10.7403 20.0678 10.7382 20.2825C10.7382 21.047 10.7189 21.047 9.94365 21.047C9.56784 21.047 9.19204 21.047 8.81839 21.047C8.60364 21.047 8.51774 20.9632 8.51774 20.7485C8.51774 18.8416 8.51774 16.9354 8.51774 15.0299C8.52231 14.9563 8.54157 14.8843 8.5744 14.8183C8.60723 14.7523 8.65295 14.6935 8.70887 14.6455C9.16627 14.1065 9.63871 13.5696 10.1434 12.9941ZM22.1561 12.8674C21.7952 11.8916 21.2612 10.9888 20.5799 10.2024C20.4854 10.095 20.3652 10.1358 20.2621 10.1444C17.6763 10.3291 15.0806 10.3291 12.4948 10.1444C12.4195 10.1351 12.3431 10.1459 12.2733 10.1757C12.2035 10.2055 12.1429 10.2532 12.0975 10.3141C11.5184 11.0241 11.0446 11.8139 10.691 12.6591C10.6158 12.833 10.648 12.8738 10.8391 12.8889C11.6981 12.9275 12.5442 12.9962 13.3946 13.0284C14.5499 13.0714 15.6988 13.2153 16.8563 13.168C17.6358 13.138 18.4153 13.0864 19.1948 13.0435L22.1561 12.8674ZM10.6995 16.4686C10.9648 16.4665 11.2274 16.4163 11.4748 16.3205C11.5479 16.2904 11.6101 16.2387 11.6531 16.1723C11.696 16.1059 11.7177 16.028 11.7153 15.949C11.7196 15.8712 11.6967 15.7943 11.6504 15.7316C11.6042 15.6689 11.5375 15.6242 11.4619 15.6054C10.8404 15.3676 10.1908 15.211 9.52919 15.1394C9.46281 15.1239 9.39326 15.1294 9.33016 15.1552C9.26706 15.1809 9.21353 15.2257 9.17701 15.2833C9.13274 15.3556 9.10318 15.4359 9.09001 15.5196C9.07685 15.6034 9.08034 15.6889 9.10029 15.7713C9.12024 15.8537 9.15625 15.9313 9.20627 15.9998C9.25628 16.0682 9.31932 16.1261 9.39175 16.1701C9.79878 16.3693 10.2464 16.4715 10.6995 16.4686ZM22.0681 16.4686C22.5401 16.4762 23.0063 16.3639 23.4231 16.1422C23.5428 16.0668 23.6317 15.9514 23.6742 15.8165C23.7167 15.6816 23.7099 15.536 23.655 15.4057C23.5606 15.1072 23.3437 15.1243 23.1032 15.1566C22.4964 15.2352 21.901 15.3851 21.3294 15.6032C21.1705 15.6655 21.0609 15.7514 21.0631 15.9382C21.0585 16.0218 21.0805 16.1047 21.1261 16.1749C21.1716 16.2452 21.2383 16.2992 21.3165 16.3291C21.5574 16.4173 21.8115 16.4645 22.0681 16.4686Z" fill="#0237FE"/>
<path d="M29.1504 21.2102C29.2298 21.3584 29.1504 21.4378 29.1138 21.5152C26.9664 25.9539 23.4833 28.6919 18.6215 29.5273C11.2106 30.7964 4.02101 25.722 2.68315 18.3412C2.66152 18.1629 2.60085 17.9916 2.50546 17.8394C2.41007 17.6872 2.28231 17.558 2.13126 17.4608C1.69363 17.1531 1.33954 16.7412 1.10095 16.2623C0.86237 15.7835 0.746812 15.2527 0.764713 14.7181C0.782614 14.1834 0.933411 13.6615 1.20349 13.1997C1.47356 12.7379 1.85441 12.3506 2.31165 12.0729C2.37822 12.0321 2.43834 11.9612 2.56504 11.9913C2.56504 12.6784 2.56504 13.3721 2.56504 14.0657C2.55459 14.1611 2.57319 14.2575 2.6184 14.3421C2.66361 14.4268 2.73333 14.4959 2.81844 14.5403C3.16203 14.755 3.49703 14.9848 3.82559 15.221C3.8705 15.2628 3.92958 15.2861 3.99094 15.2861C4.0523 15.2861 4.11139 15.2628 4.1563 15.221C4.51277 14.9676 4.87354 14.7207 5.2429 14.4866C5.30432 14.4508 5.35379 14.3977 5.38512 14.3339C5.41645 14.2701 5.42823 14.1984 5.41899 14.128C5.41899 13.4837 5.41899 12.8567 5.41899 12.221C5.41899 12.1437 5.3739 12.0385 5.4555 11.9913C5.5371 11.944 5.60797 12.0342 5.67024 12.075C6.13723 12.3587 6.52438 12.7565 6.79528 13.231C7.06617 13.7055 7.21191 14.2411 7.21879 14.7875C7.22566 15.3339 7.09344 15.873 6.83456 16.3542C6.57569 16.8353 6.19866 17.2428 5.73896 17.5381C5.43402 17.7314 5.4147 17.8967 5.48342 18.2038C6.59579 23.1816 10.8134 27.1457 15.847 27.9188C18.4358 28.3333 21.0895 27.9366 23.4441 26.7831C25.7986 25.6297 27.7385 23.7761 28.9979 21.4765C29.043 21.4035 29.0881 21.324 29.1504 21.2102Z" fill="#020202"/>
</svg>
